<svg id="Layer_1" data-name="Layer 1" xmlns="http://www.w3.org/2000/svg" viewBox="0 0 183.63 199.3"><defs><style>.cls-1{fill:#fed317;}.cls-2{fill:#111;}</style></defs><title>Arrow_2</title><path class="cls-1" d="M500.42,532.31a4,4,0,0,0,.87,1.87,2.73,2.73,0,0,1,.7,1.24,5,5,0,0,0,1.94,2.88c.74.55.87.94.9,1.22a5.82,5.82,0,0,0,1.73,3.47,2.72,2.72,0,0,1,.74,1.34,9.87,9.87,0,0,0,2.4,4.37,2.44,2.44,0,0,0,1.77,1h0a1.72,1.72,0,0,0,1.27-.59,2.23,2.23,0,0,0,.38-1.83V546.1c0-.2,0-.41,0-.62a7.66,7.66,0,0,0-.06-1.84c-.15-.87-.3-1.56-.46-2.17a6.62,6.62,0,0,0-.46-1.1c-.1-.22-.25-.51-.26-.56a2.42,2.42,0,0,1,.19-.49l.13-.3a5.2,5.2,0,0,1,.32-.62,6.42,6.42,0,0,0,.63-1.34,3.51,3.51,0,0,0,.11-1.92V535a4.34,4.34,0,0,0-.07-.63,2.83,2.83,0,0,0-.26-.67,6.44,6.44,0,0,1-.16-1l-.06-.54a5.82,5.82,0,0,1,0-1.49,13.9,13.9,0,0,0,0-3.76,6.63,6.63,0,0,0-.81-2.19l-.05-.09.15-.18q.18-.21.33-.42a3.68,3.68,0,0,0,.52-2,28.44,28.44,0,0,0,0-3.44l0-.56c0-.52-.09-1-.08-1.49a10.76,10.76,0,0,0-.25-2.61l0-.24a7.41,7.41,0,0,0-.48-1.56,3.88,3.88,0,0,0-.24-.45,2.12,2.12,0,0,1-.11-.21,2.62,2.62,0,0,1,.2-1.25l.06-.2a4.36,4.36,0,0,0,.29-1.6,4,4,0,0,0-.12-.77.83.83,0,0,1,0-.15,2.87,2.87,0,0,1,0-1,11.43,11.43,0,0,1,.4-1.38c.47-1.47,1.06-3.29.15-5.17-.15-.31-.15-.48,0-1.23l0-.21q.11-.81.24-1.62c.13-.83.27-1.7.35-2.58.26-3.12.42-6.29.56-9.35l0-.78c0-1.08,0-2.14-.05-3.17l0-.81a3.45,3.45,0,0,1,.12-.89,3.14,3.14,0,0,0,.06-1.06,4.23,4.23,0,0,0-.35-1.22,2.46,2.46,0,0,1-.14-.38,1.65,1.65,0,0,1,.05-.78,3.9,3.9,0,0,0,.12-1.88,1.77,1.77,0,0,1,0-1.1,2.61,2.61,0,0,0,.17-.9c0-.42,0-.84,0-1.25a22.48,22.48,0,0,0-.1-3.46,2.88,2.88,0,0,1,0-.58v-.15c0-.17,0-.34.06-.51l.06-.41v-.12a3.89,3.89,0,0,0-.62-2.23,2.28,2.28,0,0,0-.22-.28,2,2,0,0,0,.65-1.21c.06-.51.11-1,.15-1.51l.06-.63-.42-3.79-.05-.25a2.22,2.22,0,0,0-2.63-1.76,4.37,4.37,0,0,0-2.18,1,9.79,9.79,0,0,1-.89.64l-.52.36-.12.08a3.72,3.72,0,0,0-.67.53,1.94,1.94,0,0,0,.13,2.89,4.22,4.22,0,0,0,.79.52l.75-1.3h0l-.71,1.32.34.18c.44.24.88.48,1.34.69a1.94,1.94,0,0,1,1,1.09,3.57,3.57,0,0,0,.43.77,2.48,2.48,0,0,0-.26.19,3.57,3.57,0,0,0-.8,1l-.07.11-.5.82c-.21.35-.42.7-.65,1l0,0a10.45,10.45,0,0,0-1.19.73,5.72,5.72,0,0,1-1.26.72,2,2,0,0,0-.59.32,2,2,0,0,1-.6.14c-.87.14-1.73.32-2.59.49l-.57.12a2.82,2.82,0,0,0-.87.35,1.79,1.79,0,0,1-1.19.14,5.45,5.45,0,0,0-1.89.13,2.44,2.44,0,0,0-1.94,2.15c0,.19-.05.37-.08.56a8.1,8.1,0,0,0,0,3,2.08,2.08,0,0,1,0,.75,5,5,0,0,0,.11,2.29,4,4,0,0,1-.06,2.45,5.94,5.94,0,0,0-.23,2.47,4.36,4.36,0,0,1,0,1.25,7.9,7.9,0,0,0-.2,2.5,1.76,1.76,0,0,0,0,.22,4.69,4.69,0,0,0-.82,3.16v.1a4.38,4.38,0,0,1-.11,1.67,5.27,5.27,0,0,0-.22,2.42,3,3,0,0,1,0,.71,11,11,0,0,0-.34,2.84l-.22.61c-.24.71-.48,1.41-.76,2.09a4,4,0,0,0-.19,2.51,3.23,3.23,0,0,1,.12.77,4.9,4.9,0,0,0,1,3.46c.22.29.46.56.7.84l.14.16.34.39c.14.16.29.32.42.49.28.36.56.71.83,1.07.49.64,1,1.28,1.49,1.9a2.13,2.13,0,0,1,.37.52,4.67,4.67,0,0,0,1.62,2.67.42.42,0,0,1,.1.26c0,.24.05.48.07.71l.06.59-.06,0a7.56,7.56,0,0,0-.94.73l-3.08-.33a2,2,0,0,0-2.3.86,2.21,2.21,0,0,0,.11,2.36l.07.12a6.78,6.78,0,0,1,.79,1.86,3.47,3.47,0,0,0,1.12,1.93,2.19,2.19,0,0,1,.66.9,3.33,3.33,0,0,0,.68,1,13.31,13.31,0,0,1,1.43,2.27c.21.39.42.78.64,1.15a4.39,4.39,0,0,0,1.56,2.27C500.24,531.82,500.35,531.93,500.42,532.31Z" transform="translate(-376.94 -406.27)"/><path class="cls-1" d="M527.88,584.39a2.66,2.66,0,0,0-1.51-1.88,3.16,3.16,0,0,0-1.18-.4h-.11a9.31,9.31,0,0,0-1.77,0A3.9,3.9,0,0,1,522,582c-.49-.1-1-.17-1.49-.25-.34,0-.68-.1-1-.17l-.34-.06a2.82,2.82,0,0,1-1.23-1.19,3.5,3.5,0,0,0-.53-.84,2,2,0,0,1-.44-1.14,5,5,0,0,0-1.34-2.85,1.41,1.41,0,0,1-.45-.73,2,2,0,0,0-1.41-1.6,2,2,0,0,0-2.07.73,4.25,4.25,0,0,0-1.09,2.88.34.34,0,0,1-.07.24,4.74,4.74,0,0,0-1,2.6,3.88,3.88,0,0,1-.76,1.83.75.75,0,0,1-.68.41h-.54a8.7,8.7,0,0,0-1,0,3.72,3.72,0,0,0-1.69.5,1.12,1.12,0,0,1-.76.12l-1.08-.13-.57.15-1,.29a2.08,2.08,0,0,0-1.57,1.77,2.14,2.14,0,0,0,.92,1.94l.52.44c.29.25.58.5.88.74s.81.6,1.23.89c.15.1.3.2.46.29a3.61,3.61,0,0,1,.36.23l.57.46c.16.13.32.27.49.39a1.63,1.63,0,0,1-.21.44,11.93,11.93,0,0,0-1.41,3.3l0,.1a6.49,6.49,0,0,1-1.15,2.51,2.44,2.44,0,0,0-.35.5,2.31,2.31,0,0,0,.2,2.79,2.13,2.13,0,0,0,1.54.63,2.83,2.83,0,0,0,1.24-.31l.15-.08a10.32,10.32,0,0,0,2.89-2.13.94.94,0,0,1,.29-.15,3.71,3.71,0,0,0,2.06-1.59,2.75,2.75,0,0,1,1.13-.89,1.78,1.78,0,0,1,1.61-.22,3.79,3.79,0,0,1,.79.34,5.25,5.25,0,0,1,.58.38l.55.37.71.42.57.34a4,4,0,0,0,2,.68.69.69,0,0,1,.54.26,3.88,3.88,0,0,0,.87.77,2.31,2.31,0,0,0,2.52,0,2.13,2.13,0,0,0,.92-2.36,4.88,4.88,0,0,0-.2-.65l-.06-.17-.11-.36a3.72,3.72,0,0,1-.17-.62,3.27,3.27,0,0,0-1.3-2.37c-.33-.24-.57-.61-.7-1.6h0l.39-.15a8.29,8.29,0,0,0,2.67-1.5,2.48,2.48,0,0,1,1.07-.61,4.08,4.08,0,0,0,2.26-1.36A2.68,2.68,0,0,0,527.88,584.39Z" transform="translate(-376.94 -406.27)"/><path class="cls-1" d="M422.05,470c-.12-.19-.24-.38-.38-.56l-.11-.15a3.81,3.81,0,0,0-1.06-1.07,8.16,8.16,0,0,0-4.15-1.1,3.35,3.35,0,0,0-1.37.32c-.51.23-1.18.54-1.84.89a4.63,4.63,0,0,0-2.59,3.23,1.51,1.51,0,0,1-.16.39,5.09,5.09,0,0,0-.55,2.44,7.43,7.43,0,0,0,.9,3.24,4.74,4.74,0,0,0,2.5,2.28h0c.32.13.66.24,1,.34l.62.2a4.68,4.68,0,0,0,1.62.33,7.75,7.75,0,0,0,1.95-.33,6.93,6.93,0,0,0,3.55-2.29,5.43,5.43,0,0,0,1.31-3.14c0-.32,0-.64,0-1v-.69a.76.76,0,0,1,0-.15,3.26,3.26,0,0,0-1-2.8A4.12,4.12,0,0,1,422.05,470Z" transform="translate(-376.94 -406.27)"/><path class="cls-1" d="M487.49,513.13a3.68,3.68,0,0,1-.41-.25l-.23-.19c-.78-.63-1.51-1.22-2.19-1.86a5.78,5.78,0,0,0-2.8-1.6c-.15,0-.16-.05-.16-.16a11.31,11.31,0,0,1,0-1.94,7.24,7.24,0,0,0-.08-2.08c0-.17,0-.28,0-.23a5.64,5.64,0,0,0,.48-2.71,5.42,5.42,0,0,1,0-.57c0-.24,0-.48,0-.71a.76.76,0,0,1,.09-.48,3.62,3.62,0,0,0,.21-3.7,1.4,1.4,0,0,1,0-1.12,5.36,5.36,0,0,0,.18-1c0-.12,0-.24,0-.36l.05-.36a5.19,5.19,0,0,1,.13-.7,3.72,3.72,0,0,0,0-2.2.85.85,0,0,1,.05-.59,5,5,0,0,0,.31-2.52,1.23,1.23,0,0,1,0-.38c.1-.6.22-1.24.37-1.84a3,3,0,0,0-.52-2.65,2.91,2.91,0,0,0-2.49-1,2.47,2.47,0,0,0-1.06.28,2.74,2.74,0,0,1-1.32.25h0a3.2,3.2,0,0,0-.87.13l-.16,0-.62.11-.58.1a9.93,9.93,0,0,1-1,.09,7.84,7.84,0,0,0-2,.29,1.83,1.83,0,0,1-.38-.06,6.5,6.5,0,0,0-2.81,0c-.72.15-1.57.34-2.42.59a10,10,0,0,0-1.11.42l-.4.16-.45.21-.23.11a7.46,7.46,0,0,0-3.23.81c-.19.1-.39.18-.58.27a11.34,11.34,0,0,0-1,.51c-.56.32-1.09.68-1.6,1l-.28.19c-.25.16-.49.34-.72.51l-.43.31-1,.68-.51.32a10.54,10.54,0,0,0-1.2.81,2.77,2.77,0,0,1-.85.49,6.71,6.71,0,0,0-1.34.67c-.4.26-.78.54-1.16.82l-.37.27-.22.15a5.18,5.18,0,0,0-.86.68,11.45,11.45,0,0,1-2.48,1.91c-.41.24-.83.47-1.25.7s-.77.43-1.15.66l-.2.11a8.55,8.55,0,0,0-1.37.91,3.88,3.88,0,0,1-1,.65,8.18,8.18,0,0,0-3.38,2.29l-.12.07a8.74,8.74,0,0,0-2.79,1.74,10.62,10.62,0,0,1-1.31,1,1.92,1.92,0,0,0-.46.39,2.32,2.32,0,0,0-.59,2,2.16,2.16,0,0,0,1.25,1.53,5.11,5.11,0,0,0,1.9.5c.55,0,1.09,0,1.6,0a8.92,8.92,0,0,1,2.23.12,3.07,3.07,0,0,0,.91.06H442a4.48,4.48,0,0,0,2.62-.26,1.82,1.82,0,0,1,.79-.06,10.9,10.9,0,0,0,1.4,0l.59,0h1.5l.49,0a8.06,8.06,0,0,0,1.38,0,2.75,2.75,0,0,1,1.17.08,5.39,5.39,0,0,0,2.43.14,3.15,3.15,0,0,1,1,0,5.13,5.13,0,0,0,2.6-.23,3.39,3.39,0,0,1,2.05-.09,6.33,6.33,0,0,0,3.09,0,3.36,3.36,0,0,1,1.29,0,4.55,4.55,0,0,0,1.9-.08,1.18,1.18,0,0,1,1,.08,3.88,3.88,0,0,0,2.72.29c.38-.09.79-.14,1.23-.2l.4-.06.48.07,1.24.17c-.05.74-.28,1-.53,1.12a4.34,4.34,0,0,0-1.78,2.07,2.16,2.16,0,0,1-.7.94A3.76,3.76,0,0,0,469,514a.61.61,0,0,1-.22.35,7.32,7.32,0,0,0-1.6,2c-.28.54-.57,1.07-.86,1.6l-.08.14a2.36,2.36,0,0,1-.22.36,10.39,10.39,0,0,0-1.52,2.18c-.18.31-.36.63-.56.93l-.11.17a3.55,3.55,0,0,1-.79,1,3.37,3.37,0,0,0-1.46,2.24,2.37,2.37,0,0,1-.68,1.13,5,5,0,0,0-.82,1.31,1,1,0,0,1-.36.47,3.74,3.74,0,0,0-1.51,2,1,1,0,0,1-.15.23l-.14.2c-.08.13-.18.25-.27.38a9,9,0,0,0-.62.94,8,8,0,0,1-1.34,1.91,5.8,5.8,0,0,0-1.18,1.7,6.56,6.56,0,0,1-1.77,2.4,3.85,3.85,0,0,0-1.34,2.19,1.36,1.36,0,0,1-.32.52,5.16,5.16,0,0,0-.58.9l-.13.24-.21.36a6.11,6.11,0,0,1-.36.61c-.08.12-.17.23-.25.34a4.93,4.93,0,0,0-.61.89,4.56,4.56,0,0,1-.92,1.25,3.81,3.81,0,0,0-1.26,2.34.22.22,0,0,1-.12.2,4.64,4.64,0,0,0-2,3,2.79,2.79,0,0,0,.6,2.51,4,4,0,0,0,2.42,1.38,2,2,0,0,1,1.51.79,6.21,6.21,0,0,0,3,2.4,6.2,6.2,0,0,1,2.31,2.12c.35.43.7.88,1.11,1.31a2.79,2.79,0,0,0,2.06,1,2.63,2.63,0,0,0,1.5-.5,3.27,3.27,0,0,0,1-1.15c0-.08.09-.16.15-.24a2.2,2.2,0,0,1,.26-.27,4.26,4.26,0,0,0,.69-.78,3.92,3.92,0,0,1,.46-.46,4.86,4.86,0,0,0,1.14-1.28,5.16,5.16,0,0,1,1.08-1.42l.18-.14a2.92,2.92,0,0,0,1-1.27,4.57,4.57,0,0,0,.24-.79,2.23,2.23,0,0,1,.09-.32,5,5,0,0,1,.48-.74c.15-.2.29-.41.43-.61l.1-.16a3.25,3.25,0,0,0,.62-1.36,5.24,5.24,0,0,0,0-1.31c0-.16,0-.34,0-.47a7,7,0,0,1,1-.65l.15-.08c.26-.15.53-.29.79-.42a10,10,0,0,0,1.84-1.09,2.56,2.56,0,0,0,1.08-2.14c0-.17,0-.35,0-.54a1.47,1.47,0,0,1,0-.28,3,3,0,0,1,.46-.79,5.91,5.91,0,0,0,.83-1.43c.06-.18.12-.35.17-.53a3.37,3.37,0,0,1,.28-.71,5.36,5.36,0,0,1,.79-.82,10,10,0,0,0,.74-.71,4.38,4.38,0,0,0,1.35-2.5,2.67,2.67,0,0,1,.71-1.06,6,6,0,0,0,1.26-1.93,4.27,4.27,0,0,0,.19-1.14,2.09,2.09,0,0,1,0-.26,4.12,4.12,0,0,1,.63-.65c.22-.2.44-.4.61-.59a4.8,4.8,0,0,0,1.6-3.32,4,4,0,0,0-.08-.62l.24-.23c.11-.1.22-.19.31-.29l.26-.24c.31-.31.64-.63,1-1s.56-.65.83-1a28.28,28.28,0,0,0,3.36-4.46,7.19,7.19,0,0,1,1.17-1.44l.23-.24a2.5,2.5,0,0,0,.78-1.8A3.19,3.19,0,0,0,487.49,513.13Zm-19.05,31.21.17,0,0,0a6.54,6.54,0,0,1-.59.34l-.29,0A2.68,2.68,0,0,1,468.44,544.34Z" transform="translate(-376.94 -406.27)"/><path class="cls-2" d="M485.63,525.09a2.37,2.37,0,0,0,1-1.21,10.45,10.45,0,0,1,2-3.57,4.63,4.63,0,0,1,.7-.7,1,1,0,0,1,1.32,0l.13.11a3.3,3.3,0,0,1,1.18,1.56,3.67,3.67,0,0,0,.79,1.42,7.25,7.25,0,0,1,.69.93c.06.11.13.22.2.33a3.75,3.75,0,0,1,.61,1.35,8.13,8.13,0,0,0,1.05,2.61,3.56,3.56,0,0,0,1.32,1.37,2.71,2.71,0,0,1,1.21,1.46c.33.88.68,1.76,1,2.63l.07.19a2.88,2.88,0,0,0,.29.61c.26.38.51.78.75,1.18a11.44,11.44,0,0,0,1.27,1.83,8.78,8.78,0,0,1,2.06,3.52,3,3,0,0,0,.55.91,10.78,10.78,0,0,1,1.15,2,14.24,14.24,0,0,0,.69,1.35.59.59,0,0,1,.08.22,9,9,0,0,0,1.11,2.05c.25.4.51.8.74,1.21l.13.14.29.37c.27.33.54.67.79,1l.4.57a6.36,6.36,0,0,0,.59.82,3.63,3.63,0,0,1,.76,1.52,4.68,4.68,0,0,0,.37.89l.11.2a2.3,2.3,0,0,0,.33.52l.4.48c.41.51.84,1,1.3,1.5a.78.78,0,0,0,.52.22,1,1,0,0,0,.65-.34,2.09,2.09,0,0,0,.43-1.11l0-.27a4.68,4.68,0,0,1,.15-.8,5.3,5.3,0,0,0,.08-2.86,3.89,3.89,0,0,1,.22-2.58,2.18,2.18,0,0,0,.19-1.3,7,7,0,0,0-.37-1.47,3.52,3.52,0,0,1-.17-2.19c.07-.27.12-.48.18-.7a1.94,1.94,0,0,0,0-1.19,2.7,2.7,0,0,1,.15-2,1.47,1.47,0,0,0,0-1.35,2.7,2.7,0,0,1-.19-1.74,6.32,6.32,0,0,0,.14-1.45,10.13,10.13,0,0,1,0-2.13,2.21,2.21,0,0,0-.05-.61c0-.13,0-.26,0-.39l0-.27a3.67,3.67,0,0,1,0-.82,4.4,4.4,0,0,0-.1-1.35,3.62,3.62,0,0,1,0-1.7,7.28,7.28,0,0,0,.11-3.34,6.27,6.27,0,0,1,.06-2.19,7.06,7.06,0,0,0,.09-1.39c0-.87,0-1.67,0-2.47a4.09,4.09,0,0,0-.08-.8,2.37,2.37,0,0,1,.14-1.63,2,2,0,0,0,.13-1.07c0-.32,0-.65,0-1s0-.51,0-.76v-.25a3.2,3.2,0,0,0-.13-1,3,3,0,0,1,0-2.28,2.33,2.33,0,0,0,.13-1.36,2,2,0,0,1-.05-.62,11.33,11.33,0,0,0,0-1.42,7.91,7.91,0,0,1,0-2.17,1.34,1.34,0,0,0,0-.46c0-.08,0-.16,0-.24a9.63,9.63,0,0,1,0-3.74,1.77,1.77,0,0,0-.07-1.15,2.94,2.94,0,0,1-.09-2.07,2.86,2.86,0,0,0,.08-1.17,4.5,4.5,0,0,1,.26-2.61,2.68,2.68,0,0,0,.13-1.28,13.35,13.35,0,0,1-.1-1.72,6.5,6.5,0,0,0-.21-2,2.92,2.92,0,0,1-.1-1.31,6.61,6.61,0,0,0-.09-2.67,3.37,3.37,0,0,1,.27-2.44,1.57,1.57,0,0,0,.12-1.22,4.88,4.88,0,0,1-.07-1.94,5,5,0,0,0,0-1.41,6.12,6.12,0,0,1,0-2.66,4.71,4.71,0,0,0-.1-2.72,3.94,3.94,0,0,1-.16-2,3.78,3.78,0,0,0,0-.83v-.94a4.89,4.89,0,0,1,.08-1.26,6.66,6.66,0,0,0,.13-2,8.68,8.68,0,0,1,0-1c0-.16,0-.32,0-.49v-.12c0-.47,0-.94,0-1.4,0-.22,0-.43,0-.64a10.61,10.61,0,0,1,0-1.26,3,3,0,0,0-.15-1.41,3.14,3.14,0,0,1-.18-1.8,4.09,4.09,0,0,0,0-.62,5.53,5.53,0,0,1,.2-1.84,2,2,0,0,0,0-.61V453c0-.09,0-.18,0-.27a2.44,2.44,0,0,1,0-.54,3.8,3.8,0,0,0-.28-1.72c-.16-.45-.44-.5-.66-.48a4.17,4.17,0,0,0-.91.18l-.49.17a5.37,5.37,0,0,1-.75.23,2.18,2.18,0,0,0-1.1.6,10.65,10.65,0,0,1-1,.88l-.13.1c-.14.11-.29.21-.44.31a3.77,3.77,0,0,0-.61.47,6.3,6.3,0,0,1-2.06,1.32,3.77,3.77,0,0,0-1.28.92,4.32,4.32,0,0,1-1,.83c-.3.17-.61.32-.92.46s-.51.24-.76.38a10.14,10.14,0,0,0-1,.65l-.19.13c-.12.08-.23.17-.34.26a3.24,3.24,0,0,1-.7.49,16.8,16.8,0,0,1-3.52,1.08l-1.25.3a2.64,2.64,0,0,1-.73.06h-.31l-.47,0c-.32,0-.66.05-1,.05a4.79,4.79,0,0,1-1.38-.15,5,5,0,0,0-1.41-.23,5.27,5.27,0,0,1-1.5-.21l-.61-.23a4.75,4.75,0,0,0-1.38-.38,1.08,1.08,0,0,1-.55-.21l-.43-.29c-.54-.35-1.09-.71-1.61-1.11a3.51,3.51,0,0,1-.91-1,8.27,8.27,0,0,0-1-1.51,1.29,1.29,0,0,1,0-1.84,3.76,3.76,0,0,1,1.74-1.22,3.66,3.66,0,0,0,.62-.25l.17-.07a7.79,7.79,0,0,1,4-.95,1.92,1.92,0,0,0,.77-.17c.61-.22,1.24-.41,1.86-.6a19.47,19.47,0,0,0,3-1.07l.15-.05a2,2,0,0,0,1-.55,3.66,3.66,0,0,1,1.07-.69,2.06,2.06,0,0,0,.9-.71,3.17,3.17,0,0,1,1-.91,8.49,8.49,0,0,0,2.45-1.85,7,7,0,0,1,1.21-1,2.41,2.41,0,0,0,.89-.92,2.32,2.32,0,0,1,.71-.9,7.81,7.81,0,0,0,1.79-1.67,2.42,2.42,0,0,1,.51-.45,2.24,2.24,0,0,0,1-1.72,2.35,2.35,0,0,1,1.75-2.22,1.22,1.22,0,0,0,.77-.74c.11-.23.21-.46.32-.7s.24-.51.35-.77a2.65,2.65,0,0,1,.92-1.15,1.71,1.71,0,0,0,.68-.93,3.89,3.89,0,0,1,1-1.61l.52-.53c.39-.39.78-.78,1.18-1.16a2,2,0,0,0,.64-1.17,2.91,2.91,0,0,1,1.12-1.91l1.21-1.05,1.19-1a2.15,2.15,0,0,0,.72-1.21,1.61,1.61,0,0,0-.78-1.93,3.21,3.21,0,0,0-1.81-.53,1.24,1.24,0,0,0-.72.23,5.68,5.68,0,0,1-1.87.88l-.17.05a1.1,1.1,0,0,0-.38.13,8.07,8.07,0,0,1-1.77,1.21c-.28.15-.56.3-.82.47s-.7.48-1.05.73a12.53,12.53,0,0,1-1.46,1,4.32,4.32,0,0,0-1.63,1.51l-.07.12a7.9,7.9,0,0,1-.55.78,2.69,2.69,0,0,0-.27.32,5.92,5.92,0,0,1-1.09,1.09,5.13,5.13,0,0,0-1.87,2.38,7.31,7.31,0,0,1-3.84,3.84,2.89,2.89,0,0,0-1.25,1,7.48,7.48,0,0,1-2.54,2.3,4.43,4.43,0,0,0-1.66,1.42,2.81,2.81,0,0,1-2,1.32,8.12,8.12,0,0,0-.81.22c-.2.07-.39.13-.59.18l-.89.21-.6.13-1.09.23-.29.06a3.93,3.93,0,0,1-1,.14,1,1,0,0,1-.94-1.57,6.28,6.28,0,0,1,.45-.69,4.63,4.63,0,0,0,.31-.46l.13-.2a1.77,1.77,0,0,0,.32-.65,23.62,23.62,0,0,0,0-2.72,2.23,2.23,0,0,1,.64-1.81c.19-.18.36-.37.54-.57a5.42,5.42,0,0,1,1.47-1.29,1.19,1.19,0,0,0,.26-.25,1.63,1.63,0,0,0,.31-1.71,4.93,4.93,0,0,0-1.43-1.5,5.82,5.82,0,0,1-2.31-2.07.81.81,0,0,0-.16-.17l-.1-.1a3.49,3.49,0,0,1-1-2.82,3,3,0,0,0,0-.52,2.48,2.48,0,0,0-1.17-1.71c-.24-.18-.47-.38-.71-.57s-.55-.46-.84-.68c-.67-.49-1.29-.91-1.9-1.28a1.73,1.73,0,0,0-1.19-.22,3.72,3.72,0,0,1-.94,0,2,2,0,0,0-1.36.21,2.46,2.46,0,0,1-.93.37,10.75,10.75,0,0,0-2.43.63c-.37.13-.73.25-1.1.36a13.93,13.93,0,0,0-1.76.73l-.56.27a1.34,1.34,0,0,0-.39.31c-.69.71-1.36,1.43-2,2.15a1.23,1.23,0,0,0-.3.42,10.55,10.55,0,0,0-.92,3.78V426a3.57,3.57,0,0,1-.16,1.1,2.82,2.82,0,0,0-.15,1.45,4.36,4.36,0,0,1,0,.63c0,.12,0,.24,0,.37a3.78,3.78,0,0,0,.12.81,23.67,23.67,0,0,1,.93,6.28v.37c0,.29,0,.58,0,.87a1.53,1.53,0,0,1-1,1.46c-.19.06-.37.14-.56.21a4.69,4.69,0,0,1-3,.4,1.2,1.2,0,0,0-1.38.58,5,5,0,0,1-2.56,1.95,2.09,2.09,0,0,0-.85.48c-.95.89-1.79,1.74-2.57,2.59-.29.31-.55.65-.82,1s-.53.68-.82,1a6.64,6.64,0,0,1-1.35,1.13,1.71,1.71,0,0,0-.74.94,6.83,6.83,0,0,1-.72,1.46,8,8,0,0,1-1,1.19,5.33,5.33,0,0,0-1,1.67c-.15.32-.29.64-.46,1a2.55,2.55,0,0,1-1.15,2,1.58,1.58,0,0,0-.56,1.25c0,.27,0,.54,0,.81a2.39,2.39,0,0,1-.49,1.58,4.39,4.39,0,0,0-.72,2.83,5.58,5.58,0,0,1-.39,2.29,2.62,2.62,0,0,0-.15,1.66,2.73,2.73,0,0,1-.38,2.15,1.41,1.41,0,0,0-.12,1.48,2.59,2.59,0,0,1,.06,1.83,1.64,1.64,0,0,0-.09.71l.09.49a8.67,8.67,0,0,0,.53,2.12,3.23,3.23,0,0,1,.2,1.44,4.74,4.74,0,0,0,1.33,3.77,3.36,3.36,0,0,1,.86,1.31,2.33,2.33,0,0,0,1.66,1.6,5.2,5.2,0,0,1,2.59,1.66,1.65,1.65,0,0,0,1.28.55h.14l.34,0a1,1,0,0,1,.82.51.86.86,0,0,1-.13.88,6.38,6.38,0,0,1-1.16,1.25,7.84,7.84,0,0,1-1.57.93,11.49,11.49,0,0,0-3.22,2.25,3.19,3.19,0,0,1-.6.44l-.21.14c-.61.39-1.22.78-1.84,1.16a2.88,2.88,0,0,1-.82.33,3.19,3.19,0,0,0-1.53.9l-.28.28a4.59,4.59,0,0,1-.76.69c-.71.46-1.43.9-2.15,1.34l-1,.64-.58.36-.78.5-.8.45-.54.29-1.12.64-.43.27a7.39,7.39,0,0,1-.81.47A9.54,9.54,0,0,0,431.7,503a5.12,5.12,0,0,1-1.64,1.13,9.7,9.7,0,0,0-2.32,1.42c-.28.24-.58.44-.88.65l-.35.24-.33.21a3.69,3.69,0,0,0-.56.41,1.29,1.29,0,0,0-.37,1.29c.11.39.41.59,1,.71l.13,0,.18,0,.59.09,1.12.17c.34,0,.69.06,1,.07h2.31l.8,0a10,10,0,0,0,3.14-.22,3.28,3.28,0,0,1,1.35-.06l.21,0a7.35,7.35,0,0,0,3.1,0,2.46,2.46,0,0,1,.89-.05h.25l1.35.05,2,.05a1.63,1.63,0,0,0,.52-.09,3.19,3.19,0,0,1,2,.07,4.53,4.53,0,0,0,2.64.13,7.93,7.93,0,0,1,2.36-.19h.25a4.6,4.6,0,0,0,1.22-.12,4.51,4.51,0,0,1,2.42,0,4.21,4.21,0,0,0,3-.08,2.22,2.22,0,0,1,1.67-.08,6.7,6.7,0,0,0,2,.22,8.82,8.82,0,0,1,1.76.14,6.25,6.25,0,0,1,1.85-.25,5.73,5.73,0,0,0,1.82-.27.85.85,0,0,1,.33-.05,1.13,1.13,0,0,1,1,.48,1.08,1.08,0,0,1,0,1.05l-.09.21a17.27,17.27,0,0,1-.75,1.57,3,3,0,0,1-.85,1,5.75,5.75,0,0,0-1.66,2,11.52,11.52,0,0,1-.66,1c-.14.21-.29.42-.42.63l-.08.12a3.26,3.26,0,0,0-.43.79,4.57,4.57,0,0,1-.86,1.51,3.32,3.32,0,0,0-.38.61l-.14.27c-.09.16-.18.32-.26.49s-.32.58-.49.87-.43.67-.65,1-.53.8-.77,1.21a2.9,2.9,0,0,1-1.22,1.26,2.13,2.13,0,0,0-1.15,1.27,6.32,6.32,0,0,1-1.65,2.48,3.36,3.36,0,0,0-1.21,2.26,2.63,2.63,0,0,1-.81,1.56c-.66.74-1.29,1.51-1.92,2.27l-.23.28a2.22,2.22,0,0,0-.22.41,3.4,3.4,0,0,1-1.05,1.36,3.73,3.73,0,0,0-1.34,2.16,2.51,2.51,0,0,1-.52,1.08,5.76,5.76,0,0,0-1.06,1.69,4.57,4.57,0,0,1-1.28,1.65,5.37,5.37,0,0,0-.72.83l-.23.29c-.1.12-.2.26-.29.39a4.77,4.77,0,0,1-.61.75,2.64,2.64,0,0,0-.85,1.45,2.31,2.31,0,0,1-.49,1.13,9.9,9.9,0,0,0-1.56,2.29l-.13.18a1.12,1.12,0,0,0-.26.76,2.78,2.78,0,0,0,1.41,2.41c.38.26.76.5,1.15.75s.79.5,1.17.77a6,6,0,0,1,1.08,1,1.72,1.72,0,0,0,.95.64,3.86,3.86,0,0,1,2.15,1.33,2.41,2.41,0,0,0,1.15.76,3.56,3.56,0,0,1,1.33.84c.58.53,1.27,1.15,2,1.69.46.35,1,.67,1.47,1l.44.27a2,2,0,0,0,.48.22,3.47,3.47,0,0,1,1.62,1,1.94,1.94,0,0,0,1.6.59,2.05,2.05,0,0,0,1.52-1,7,7,0,0,1,.61-.8l.39-.49c.25-.34.47-.69.69-1s.46-.76.68-1.15l.43-.73c.37-.63.76-1.28,1.1-1.93a3.72,3.72,0,0,1,1.1-1.46,2.45,2.45,0,0,0,1-1.82,3.09,3.09,0,0,1,1-2.05,5.56,5.56,0,0,0,1.26-1.83,12.17,12.17,0,0,1,.62-1.13l.21-.36.18-.25a2.56,2.56,0,0,0,.16-.25,9.49,9.49,0,0,1,2.16-3,1.82,1.82,0,0,0,.35-.52l.17-.39c.28-.62.57-1.26.79-1.9a5.06,5.06,0,0,1,1.95-2.54,2.34,2.34,0,0,0,.76-1.08,22.56,22.56,0,0,1,1.17-2.41c.25-.45.53-.89.81-1.32.15-.24.31-.47.45-.72s.31-.5.45-.76a13.74,13.74,0,0,1,1-1.57,13.39,13.39,0,0,0,1.13-1.83c.11-.2.21-.4.33-.6l.05-.1a4.69,4.69,0,0,1,1.09-1.45,1.09,1.09,0,0,0,.45-.77A2.77,2.77,0,0,1,485.63,525.09Zm20.65-95.78a4.61,4.61,0,0,1,.89-.88,3.48,3.48,0,0,0,1.16-1.28.87.87,0,0,1,.19-.28l2.42-2.13a.79.79,0,0,1,.5-.18h.14a1,1,0,0,1,.77.2,1.08,1.08,0,0,1,.07,1.07,3,3,0,0,1-.77,1.05,5.72,5.72,0,0,0-1.76,2.42,3.16,3.16,0,0,1-1.76,1.85,2.8,2.8,0,0,1-.45.14l-.18,0h-.1a1.33,1.33,0,0,1-1.23-.64A1.22,1.22,0,0,1,506.28,429.31Zm-15,84.13a4.53,4.53,0,0,1-1.94-1.09,5.82,5.82,0,0,0-1.57-1l-.52-.27c-.29-.16-.56-.35-.84-.54s-.3-.22-.46-.32l-.13-.08a5,5,0,0,0-.7-.4,3.85,3.85,0,0,1-2.26-3.37c0-.34,0-.67,0-1s0-.52,0-.79a4.69,4.69,0,0,1,.59-2.27,1.19,1.19,0,0,1,1-.67h.67a5.43,5.43,0,0,0,2-.38c.37-.14.76-.26,1.06-.35l.4-.1a1.64,1.64,0,0,1,1.87,1.19c.07.22.14.44.22.65.13.38.27.75.37,1.14a6.26,6.26,0,0,1,.23,1.55,2.4,2.4,0,0,0,.63,1.8,3.17,3.17,0,0,1,.63,1.24l0,.09a1.58,1.58,0,0,0,.74,1,3.32,3.32,0,0,1,1.21,1.31c.17.28.37.55.56.81s.39.55.57.83a12.81,12.81,0,0,1,.93,1.74.89.89,0,0,1,0,.84,1.07,1.07,0,0,1-.82.49l-.38,0a1.71,1.71,0,0,1-1.26-.47A6.53,6.53,0,0,0,491.29,513.44Zm15.81-56.22h0a2.61,2.61,0,0,1,.47-.38l.15-.09c.16-.12.33-.23.5-.34a10.79,10.79,0,0,0,1-.72,3.22,3.22,0,0,1,1.63-.75,1.12,1.12,0,0,1,1.37.92l0,.11.41,3.63,0,.56c0,.48-.09,1-.15,1.47a.74.74,0,0,1-.47.6.32.32,0,0,1-.14,0,.78.78,0,0,1-.57-.27,2.24,2.24,0,0,1-.34-.59,3,3,0,0,0-1.52-1.67c-.43-.2-.85-.43-1.27-.66l-.35-.18a3.17,3.17,0,0,1-.61-.39.86.86,0,0,1-.33-.63A.83.83,0,0,1,507.1,457.22Zm-7.46,8a2.13,2.13,0,0,0,.14-1.76,1.45,1.45,0,0,1,.08-1.11,1.6,1.6,0,0,1,1-.72l.23-.05.64-.11c.58-.1,1.15-.2,1.73-.28a3.59,3.59,0,0,1,.73,0h.29a4.7,4.7,0,0,1,2.42.4,1.65,1.65,0,0,1,1.07,1.2,1.61,1.61,0,0,1-.65,1.44,2.49,2.49,0,0,1-1,.56A5.5,5.5,0,0,0,504,466.2a3.46,3.46,0,0,1-2.41.94,3.28,3.28,0,0,1-1.41-.3,1.2,1.2,0,0,1-.72-.69A1.17,1.17,0,0,1,499.64,465.23Zm-.62,4.69a2.81,2.81,0,0,0,1.88-.29,1.91,1.91,0,0,1,.53-.22l.58-.12c.84-.17,1.68-.34,2.53-.47a2.47,2.47,0,0,0,1.1-.36,1.48,1.48,0,0,1,.27-.16,6,6,0,0,0,1.55-.85,11.39,11.39,0,0,1,1.07-.67,1.12,1.12,0,0,0,.4-.32c.25-.38.48-.77.72-1.17l.48-.79.08-.13a3.11,3.11,0,0,1,.56-.72,1,1,0,0,1,.72-.23,1,1,0,0,1,.71.48,2.87,2.87,0,0,1,.42,1.63l0,.33c0,.2-.06.4-.07.6v.14a4.41,4.41,0,0,0,0,.81,20.07,20.07,0,0,1,.09,3.28c0,.42,0,.85,0,1.28a1.59,1.59,0,0,1-.1.51,2.84,2.84,0,0,0-.09,1.74,2.87,2.87,0,0,1-.1,1.33,2.62,2.62,0,0,0-.06,1.35,3.86,3.86,0,0,0,.19.54,3,3,0,0,1,.27.92,2,2,0,0,1,0,.69,3.86,3.86,0,0,0-.15,1.18l0,.82c.05,1,.09,2,.05,3.06l0,.78c-.15,3.05-.3,6.21-.57,9.31-.07.83-.2,1.68-.33,2.5-.09.55-.18,1.1-.25,1.65l0,.21a2.88,2.88,0,0,0,.15,1.87c.71,1.47.24,2.92-.21,4.32a10.5,10.5,0,0,0-.43,1.51,4,4,0,0,0-.05,1.45l.06.24a2.79,2.79,0,0,1,.09.53,3.39,3.39,0,0,1-.24,1.21l-.07.21a3.12,3.12,0,0,0-.17,2,2.69,2.69,0,0,0,.19.38,2.37,2.37,0,0,1,.19.35,6.12,6.12,0,0,1,.4,1.33l.05.25a9.63,9.63,0,0,1,.22,2.35c0,.54.05,1.06.09,1.6l.05.55a28.25,28.25,0,0,1,0,3.31,2.78,2.78,0,0,1-.31,1.36,3.92,3.92,0,0,1-.27.33,3.08,3.08,0,0,0-.3.39c-.23.39-.22.6.07,1.15a5.48,5.48,0,0,1,.69,1.83,13,13,0,0,1,0,3.47,7.52,7.52,0,0,0,.05,1.76q0,.24.06.51a8.46,8.46,0,0,0,.19,1.19,1.21,1.21,0,0,0,.09.2,2,2,0,0,1,.16.41,2.12,2.12,0,0,1,0,.44c0,.1,0,.2,0,.3a2.47,2.47,0,0,1-.08,1.37,6.42,6.42,0,0,1-.53,1.12,4.55,4.55,0,0,0-.39.76l-.12.26a2.3,2.3,0,0,0-.28,1,3.33,3.33,0,0,0,.38,1,5,5,0,0,1,.37.9c.16.57.3,1.23.45,2.06a7.75,7.75,0,0,1,0,1.6c0,.23,0,.45,0,.67v1.18a1,1,0,0,0,0,.15c0,.42.06.73-.12.94a.55.55,0,0,1-.43.2h0a1.39,1.39,0,0,1-.92-.61,8.78,8.78,0,0,1-2.15-3.87,3.81,3.81,0,0,0-1-1.88,4.69,4.69,0,0,1-1.42-2.82,2.87,2.87,0,0,0-1.35-2,3.86,3.86,0,0,1-1.52-2.24,3.92,3.92,0,0,0-1-1.74,2.72,2.72,0,0,1-.59-1.33,1.88,1.88,0,0,0-.71-1.24,3.31,3.31,0,0,1-1.19-1.78c-.25-.44-.48-.85-.7-1.27a12.53,12.53,0,0,0-1.58-2.47,2.65,2.65,0,0,1-.46-.7,3.14,3.14,0,0,0-1-1.36,2.3,2.3,0,0,1-.76-1.3,7.77,7.77,0,0,0-.91-2.18l-.09-.16a1.1,1.1,0,0,1-.13-1.2.94.94,0,0,1,1.12-.34l.19,0,3,.31a1.09,1.09,0,0,0,.89-.32,7.69,7.69,0,0,1,.8-.61l.16-.11a.76.76,0,0,0,.39-.81c0-.24,0-.48-.07-.73s0-.5-.08-.74a1.43,1.43,0,0,0-.49-1,3.58,3.58,0,0,1-1.24-2,2.49,2.49,0,0,0-.6-1c-.5-.61-1-1.24-1.47-1.86-.28-.37-.55-.73-.83-1.08-.15-.19-.32-.37-.48-.55l-.32-.37-.14-.16c-.22-.26-.44-.52-.65-.79a3.78,3.78,0,0,1-.75-2.69,3.7,3.7,0,0,0-.15-1.11,2.93,2.93,0,0,1,.14-1.83c.29-.71.54-1.43.79-2.15l.23-.69a.51.51,0,0,0,0-.24,10.28,10.28,0,0,1,.32-2.65,3.57,3.57,0,0,0,0-1.08,4,4,0,0,1,.16-1.9,5.32,5.32,0,0,0,.17-2.12v-.1a3.58,3.58,0,0,1,.62-2.44,1.39,1.39,0,0,0,.19-1,7,7,0,0,1,.18-2.16,5.44,5.44,0,0,0,0-1.61,4.7,4.7,0,0,1,.18-2,5,5,0,0,0,.07-3.14,3.66,3.66,0,0,1-.08-1.76,3,3,0,0,0,0-1.19,7,7,0,0,1,0-2.63c0-.19.05-.38.07-.58A1.34,1.34,0,0,1,497.5,470,4.31,4.31,0,0,1,499,469.92ZM486.25,443h0a2.45,2.45,0,0,0,1.62-.33,2.28,2.28,0,0,1,1.48-.31,3.2,3.2,0,0,0,2-.35,2.85,2.85,0,0,1,1-.31,3.57,3.57,0,0,0,1.53-.67,23.41,23.41,0,0,0,2.34-1.94,7.88,7.88,0,0,1,2.12-1.54,6.18,6.18,0,0,0,2.48-2.09,3.69,3.69,0,0,1,2.33-1.54,3.93,3.93,0,0,1,1.06-.07,1.27,1.27,0,0,1,1.11.82A1.18,1.18,0,0,1,505,436l-.11.11a3.6,3.6,0,0,1-.41.37,3.53,3.53,0,0,0-1.19,1.34,2.36,2.36,0,0,1-1.23,1.11A1.69,1.69,0,0,0,501,440a2,2,0,0,1-.94,1.13,8.27,8.27,0,0,0-1.78,1.51,1.92,1.92,0,0,1-.43.38,5.5,5.5,0,0,0-1.09.86c-.25.22-.49.45-.75.65-.51.37-1,.73-1.57,1.08l-.77.52a2,2,0,0,1-1.07.27,6.26,6.26,0,0,0-2.62.71c-.43.21-.87.42-1.31.6a2.71,2.71,0,0,1-.88.23,7.63,7.63,0,0,0-2.79.78l-.09,0a4.48,4.48,0,0,1-.71.22l-.37.11-.33.09a3.56,3.56,0,0,0-.74.27,2.49,2.49,0,0,1-1.26.34,3.23,3.23,0,0,1-.9-.14,1.87,1.87,0,0,1-1.31-1.29,4,4,0,0,0-.95-1.68,2.32,2.32,0,0,1-.54-2,1.19,1.19,0,0,1,1.06-1.1l1.76-.25,1-.14,0,.16.16,0,1.18-.16A14.06,14.06,0,0,1,486.25,443Zm-4.47-19.35a.94.94,0,0,1,1.35.34l.09.14a12.6,12.6,0,0,1,1,1.67,2.45,2.45,0,0,0,1.28,1.36,4.17,4.17,0,0,1,1.24.89,1.17,1.17,0,0,1,0,1.77l-.31.31a5.33,5.33,0,0,0-1.68,3.2,5.73,5.73,0,0,0-.06,1.26v.53a1.76,1.76,0,0,1-.59,1.45,2.67,2.67,0,0,1-.9.49,3,3,0,0,1-.74.1h-.18a2.88,2.88,0,0,0-2.53.94,4.84,4.84,0,0,1-2.37,1.39,2.63,2.63,0,0,0-1.28.79,1.4,1.4,0,0,1-1,.5h0a1.38,1.38,0,0,1-1-.58,1.14,1.14,0,0,1,0-1.66c.34-.35.7-.69,1.06-1l.75-.72c.22-.23.46-.5.72-.83q.15-.19.3-.42a4.72,4.72,0,0,1,.52-.68,2.44,2.44,0,0,0,.65-1,2.46,2.46,0,0,1,.86-1.31,3.94,3.94,0,0,0,1.49-3.16c0-.21,0-.42.07-.63s.05-.43.06-.64a10.31,10.31,0,0,0-.05-1.11l0-.33a.35.35,0,0,0,0-.12l0-.14C480.06,424.77,480.46,424.43,481.78,423.62Zm-12.38,4.25,0-.2a4.84,4.84,0,0,1,.2-2,3.37,3.37,0,0,0,.16-.91,2.52,2.52,0,0,1,.57-1.35,16.47,16.47,0,0,1,3-2.84,5.6,5.6,0,0,1,3.16-1.08c.32,0,.63,0,.95,0h.08l.77,0h1.06a1.94,1.94,0,0,1,.64.11.76.76,0,0,1,.46.5.74.74,0,0,1-.19.66,2.12,2.12,0,0,1-.36.32,3.71,3.71,0,0,0-1.43,2.08,9.6,9.6,0,0,1-.65,1.62,1.79,1.79,0,0,0,0,1.9,2,2,0,0,1,.05,2,3.36,3.36,0,0,0-.37,1.51,2.14,2.14,0,0,1-.58,1.4l-1.71,2a3.09,3.09,0,0,1-.4.41,7.15,7.15,0,0,0-1.46,1.54,2.75,2.75,0,0,1-2.07,1.06h-.17a1.11,1.11,0,0,1-1.07-.84,2.39,2.39,0,0,1-.08-1,5.58,5.58,0,0,0-.26-2.57,6.55,6.55,0,0,1-.25-3A5.31,5.31,0,0,0,469.4,427.87Zm-16,39.53a1.83,1.83,0,0,0-.78,0,6,6,0,0,1-1.91.19h-1.23a1.49,1.49,0,0,1-1.55-1.6,4.55,4.55,0,0,1,0-.53l.2-1.82a7,7,0,0,1,1.11-3.32,6.26,6.26,0,0,0,1-2.39,3.94,3.94,0,0,1,1.4-2.48,3.49,3.49,0,0,0,1.24-2.32,3.58,3.58,0,0,1,1.47-2.37,3.44,3.44,0,0,0,1.13-1.31,2.52,2.52,0,0,1,1.22-1.21,1.92,1.92,0,0,0,1.09-1.16,2.59,2.59,0,0,1,1.06-1.21l1.8-1.37.09-.07c.2-.15.39-.31.58-.47a7.94,7.94,0,0,1,1.36-1,16.15,16.15,0,0,1,2.73-1.11,2.42,2.42,0,0,1,1.28,0,8.1,8.1,0,0,0,2.45.19,5.85,5.85,0,0,1,5,2.08,7.49,7.49,0,0,1,1.06,1.67c.13.25.26.5.41.74l.05.09v.11a4.66,4.66,0,0,0,.6,2c.1.22.2.43.29.65a2.24,2.24,0,0,1,.11.34,1.5,1.5,0,0,0,.1.3l.08.16a3.26,3.26,0,0,0,.49.78,3.16,3.16,0,0,1,.94,1.93,2.85,2.85,0,0,0,.62,1.45c.37.5.73,1,1.09,1.52s.56.81.85,1.21a4.09,4.09,0,0,0,.65.67c.57.48,1.14.95,1.72,1.41l1.27,1a1.36,1.36,0,0,0,.88.36,3.09,3.09,0,0,1,1.91.65,1.82,1.82,0,0,0,1.25.4,3.59,3.59,0,0,1,1.87.43,3.6,3.6,0,0,0,2.15.38,18.85,18.85,0,0,1,2.6-.06h.67a1,1,0,0,1,1.09,1.07,5.16,5.16,0,0,1-.6,2.95,1.46,1.46,0,0,1-2,.78,3.52,3.52,0,0,1-.59-.28,2.12,2.12,0,0,0-1.44-.24,5.43,5.43,0,0,1-1.51,0,4.4,4.4,0,0,0-1.6,0,5.52,5.52,0,0,1-2.66-.16,4.72,4.72,0,0,0-2.6-.17,3.66,3.66,0,0,1-2.31-.23,4.57,4.57,0,0,0-1.15-.28,3.39,3.39,0,0,1-1.87-.87c-.25-.22-.52-.42-.79-.62l-.62-.47c-.38-.32-.75-.66-1.11-1s-.86-.85-1.28-1.28l-.26-.25a7.22,7.22,0,0,1-.78-.87,3.36,3.36,0,0,0-1.18-1.11,3.14,3.14,0,0,1-1.16-1.08c-.12-.19-.26-.36-.4-.54l-.17-.21-.11-.12a1.38,1.38,0,0,1-.3-.43,6.78,6.78,0,0,0-1.09-1.71c-.18-.24-.37-.48-.54-.72-.48-.69-.93-1.29-1.38-1.82a1,1,0,0,0-1.3-.18,6.2,6.2,0,0,0-.84.61c-.49.39-.38.69-.19,1l.13.17a16.23,16.23,0,0,0,1.62,2.05,11.18,11.18,0,0,1,2,3,1.92,1.92,0,0,1,0,1.7l-.26.56c-.19.39-.37.78-.53,1.19a6.45,6.45,0,0,0-.42,1.39,3.65,3.65,0,0,1-1.07,2.2,1.57,1.57,0,0,1-1,.48l-1.29.09-.86.06v-.08l-.24,0-1.43.2c-.59.08-1.1.15-1.61.19s-1.35.11-2.08.12a4.77,4.77,0,0,1-1.25-.11,2.43,2.43,0,0,0-1.22,0A5.77,5.77,0,0,1,453.39,467.4Zm21.91-1.14a1,1,0,0,1-.66.57h0a2,2,0,0,1-.55.12l-1.42.21h-.14a4.2,4.2,0,0,1-.62.06,1.45,1.45,0,0,1-1.09-.37,1.49,1.49,0,0,1-.31-1.13l0-.65c0-.49.06-1,.12-1.48a1.07,1.07,0,0,1,.49-.86,1.17,1.17,0,0,1,1,0,.74.74,0,0,1,.23.14,7.94,7.94,0,0,0,1,.84,6.75,6.75,0,0,1,1.51,1.38,1.89,1.89,0,0,1,.21.31A1,1,0,0,1,475.3,466.26ZM483.08,523l-.84,1a11,11,0,0,1-.88.92l-.26.25a2.16,2.16,0,0,1-.27.25,2.15,2.15,0,0,0-.6.71.92.92,0,0,0,0,.57,3,3,0,0,1,.07.45,3.88,3.88,0,0,1-1.31,2.52,6.5,6.5,0,0,1-.53.51,3.49,3.49,0,0,0-.93,1.08,2,2,0,0,0-.09.62,2.65,2.65,0,0,1-.12.81,4.92,4.92,0,0,1-1.05,1.57,3.54,3.54,0,0,0-1,1.58,3.37,3.37,0,0,1-1.08,2c-.2.22-.43.43-.66.64a5.46,5.46,0,0,0-1,1,3.71,3.71,0,0,0-.42,1c-.05.15-.1.31-.16.47a5.42,5.42,0,0,1-.68,1.17,3.42,3.42,0,0,0-.66,1.22,2.36,2.36,0,0,0,0,.59c0,.15,0,.3,0,.43a1.47,1.47,0,0,1-.66,1.28,8.27,8.27,0,0,1-1.64,1c-.29.15-.58.29-.86.45l-.14.08c-.46.26-1.41.81-1.52,1.29a3.38,3.38,0,0,0,0,.9,4,4,0,0,1,0,1,2.17,2.17,0,0,1-.44.9l-.12.19c-.12.19-.26.37-.39.56a5.56,5.56,0,0,0-.59.93,2.84,2.84,0,0,0-.17.54,2.66,2.66,0,0,1-.18.61,1.83,1.83,0,0,1-.68.8l-.24.19a6.16,6.16,0,0,0-1.32,1.72,3.82,3.82,0,0,1-.89,1,3.94,3.94,0,0,0-.67.69,3.82,3.82,0,0,1-.53.59,2.59,2.59,0,0,0-.39.42,3,3,0,0,0-.21.33,2.25,2.25,0,0,1-.67.81,1.47,1.47,0,0,1-.82.28,1.75,1.75,0,0,1-1.27-.66c-.38-.4-.72-.83-1.05-1.24a7.09,7.09,0,0,0-2.77-2.46,5.13,5.13,0,0,1-2.44-2,3.17,3.17,0,0,0-2.25-1.28,2.82,2.82,0,0,1-1.76-1,1.7,1.7,0,0,1-.36-1.53,3.48,3.48,0,0,1,1.52-2.34,1.36,1.36,0,0,0,.64-1,2.7,2.7,0,0,1,.9-1.67,5.49,5.49,0,0,0,1.15-1.55,4.52,4.52,0,0,1,.5-.71c.11-.14.21-.27.31-.42s.27-.45.4-.68l.2-.34.15-.28a3.78,3.78,0,0,1,.45-.7,2.35,2.35,0,0,0,.56-1,2.66,2.66,0,0,1,1-1.56,7.64,7.64,0,0,0,2.08-2.8,4.53,4.53,0,0,1,.95-1.37,9.11,9.11,0,0,0,1.53-2.16,6.52,6.52,0,0,1,.55-.82l.3-.43.12-.17a2.2,2.2,0,0,0,.29-.5,2.55,2.55,0,0,1,1.07-1.4,2.05,2.05,0,0,0,.77-1,3.9,3.9,0,0,1,.64-1,3.37,3.37,0,0,0,.94-1.71,2.26,2.26,0,0,1,1-1.49,4.83,4.83,0,0,0,1.06-1.26l.11-.17c.21-.32.41-.66.6-1a9.39,9.39,0,0,1,1.35-2,2.74,2.74,0,0,0,.39-.59l.08-.14c.3-.53.59-1.08.88-1.63a6,6,0,0,1,1.35-1.71,1.75,1.75,0,0,0,.58-1,2.67,2.67,0,0,1,1-1.63,3.25,3.25,0,0,0,1.05-1.43,3.13,3.13,0,0,1,1.34-1.51,2.45,2.45,0,0,0,1-2.26.78.78,0,0,0-.72-.88l-1.5-.21-.63-.08-.55.07c-.44.06-.9.12-1.33.22a2.73,2.73,0,0,1-1.95-.19,2.31,2.31,0,0,0-1.84-.16,3.3,3.3,0,0,1-1.43,0,4.31,4.31,0,0,0-1.71.06,5.12,5.12,0,0,1-2.55,0,4.56,4.56,0,0,0-2.7.13,3.93,3.93,0,0,1-2,.18,4,4,0,0,0-1.3,0,4.42,4.42,0,0,1-1.95-.11,3.79,3.79,0,0,0-1.63-.11,7.88,7.88,0,0,1-1.19,0l-.53,0h-1.53l-.63,0a10.73,10.73,0,0,1-1.27,0,2.64,2.64,0,0,0-1.28.14,3.44,3.44,0,0,1-2,.2,2.48,2.48,0,0,0-.49,0h-.43a1.85,1.85,0,0,1-.57,0,9.63,9.63,0,0,0-2.53-.16c-.49,0-1,0-1.51,0a4.45,4.45,0,0,1-1.49-.4,1.06,1.06,0,0,1-.62-.74,1.2,1.2,0,0,1,.33-1,.57.57,0,0,1,.18-.16,10.57,10.57,0,0,0,1.46-1.08,8.16,8.16,0,0,1,2.44-1.54,1.44,1.44,0,0,0,.62-.41,7.2,7.2,0,0,1,3-2,5,5,0,0,0,1.31-.82,7.92,7.92,0,0,1,1.21-.8l.19-.11,1.14-.64,1.27-.73a12,12,0,0,0,2.72-2.09,4.8,4.8,0,0,1,.68-.53l.25-.17.37-.27c.37-.27.73-.54,1.11-.78a5.26,5.26,0,0,1,1.11-.56,3.9,3.9,0,0,0,1.17-.67,12.94,12.94,0,0,1,1.09-.73l.54-.34c.34-.23.68-.46,1-.7l.45-.32.68-.49.29-.19c.49-.33,1-.67,1.53-1a10.22,10.22,0,0,1,.94-.46c.22-.1.43-.19.63-.3a6.53,6.53,0,0,1,2.83-.69,1.66,1.66,0,0,0,.62-.22l.38-.17.42-.18a10.42,10.42,0,0,1,1-.37c.82-.24,1.65-.42,2.35-.58a5.55,5.55,0,0,1,2.33,0,1.92,1.92,0,0,0,.89,0,7.31,7.31,0,0,1,1.82-.25,8.76,8.76,0,0,0,1.17-.11l.56-.09.65-.11.24-.06a2.07,2.07,0,0,1,.58-.1h0a3.71,3.71,0,0,0,1.86-.38,1.36,1.36,0,0,1,.59-.15,1.7,1.7,0,0,1,1.85,2.24c-.16.65-.28,1.31-.39,1.93a2.51,2.51,0,0,0,0,.72,3.89,3.89,0,0,1-.24,2,2,2,0,0,0-.07,1.33,2.58,2.58,0,0,1,0,1.55,5.6,5.6,0,0,0-.16.87l-.05.34c0,.14,0,.27-.05.41a5.08,5.08,0,0,1-.14.84,2.57,2.57,0,0,0,.1,1.93,2.45,2.45,0,0,1-.14,2.58,1.78,1.78,0,0,0-.27,1.13c0,.22,0,.44,0,.65s0,.43,0,.64a4.64,4.64,0,0,1-.39,2.19,1.7,1.7,0,0,0,0,.9,6.11,6.11,0,0,1,.07,1.76,14.94,14.94,0,0,0,0,2.13,1.24,1.24,0,0,0,1.06,1.19,4.53,4.53,0,0,1,2.25,1.31c.72.68,1.5,1.31,2.26,1.93l.23.18a4.17,4.17,0,0,0,.56.36c.63.35,1.4.79,1.42,1.71a1.4,1.4,0,0,1-.47,1l-.23.23a8.63,8.63,0,0,0-1.34,1.66A28.32,28.32,0,0,1,483.08,523Zm-41.64,63.2a2.11,2.11,0,0,1-1.47-.8,1.24,1.24,0,0,1,.22-1.36c.18-.22.34-.45.5-.69s.27-.38.41-.56l.11-.13a3.36,3.36,0,0,1,.68-.72,2.49,2.49,0,0,0,1.24-1.86.92.92,0,0,1,.59-.78,2.31,2.31,0,0,0,1.35-1.64,2.85,2.85,0,0,1,.39-.75,10.27,10.27,0,0,1,.76-1.14,2.84,2.84,0,0,1,.66-.61,3,3,0,0,0,1.44-2,3.53,3.53,0,0,1,1.21-1.84l.21-.22a1.16,1.16,0,0,1,.87-.25h.26l.27,0a.88.88,0,0,1,.88.89,2.64,2.64,0,0,1-1,2.5,5.55,5.55,0,0,0-1.76,2.09,1.83,1.83,0,0,1-.39.48,5.44,5.44,0,0,0-1.37,2.14,2.4,2.4,0,0,1-.69.93,8,8,0,0,0-.79.9c-.71.89-1.42,1.78-2.12,2.68l-.17.21a4.33,4.33,0,0,0-.65,1,3.72,3.72,0,0,1-1.28,1.4l-.12.1A.41.41,0,0,1,441.44,586.21ZM468,545.12c-.11,0-.15,0-.11-.07a1.94,1.94,0,0,1,.68-.35l.1,0,.07,0,0,.06A1.12,1.12,0,0,1,468,545.12ZM556.88,451a1.62,1.62,0,0,1,.76-.21,1.34,1.34,0,0,1,.48.08l.21.07,1.15.38c.48.15.58.4.61.58.13.68.24,1.36.35,2.05l.13.82,0,.24a3.16,3.16,0,0,1-.11.6,1.34,1.34,0,0,1-1.43,1.13,7,7,0,0,0-1.2.2,1.28,1.28,0,0,1-1.24-.25,3.57,3.57,0,0,1-1.5-2.28,3.09,3.09,0,0,1,0-1.07A3.51,3.51,0,0,1,556.88,451Zm-24.56,135a3,3,0,0,1,1.22-.48,2,2,0,0,0,1.34-.75,1.28,1.28,0,0,0,.43-.84c0-.25-.26-.5-.65-.83l-.1-.06a7.13,7.13,0,0,0-2.79-1.06,2.85,2.85,0,0,1-1-.26,2.9,2.9,0,0,0-2.13-.19,1.69,1.69,0,0,1-1.56-.22,5.49,5.49,0,0,0-3.22-.87,4.88,4.88,0,0,1-2-.39,3.9,3.9,0,0,0-1.6-.36,1.33,1.33,0,0,1-1.48-1.19l-.05-.2a1.31,1.31,0,0,0-.19-.53,6.17,6.17,0,0,1-1.58-2.9,1.78,1.78,0,0,1-.1-.21l-.13-.37c-.12-.35-.24-.7-.34-1.06a2.52,2.52,0,0,0-.44-1,1.81,1.81,0,0,1-.5-1.06,4,4,0,0,0-.51-1.8,1.5,1.5,0,0,1-.16-.51c-.14-.74-.38-1-.94-1.08-.81-.13-1.13,0-1.45.61s-.61,1.23-.91,1.84a6.15,6.15,0,0,0-.66,2.14,3.42,3.42,0,0,1-.84,2,3.77,3.77,0,0,0-.62,1c-.33.89-.62,1.79-.91,2.69l-.17.53a2.08,2.08,0,0,1-2,1.53,10,10,0,0,0-1.67.32,8.23,8.23,0,0,1-2.07.35l-.1,0a1.08,1.08,0,0,1-.3.08l-.28,0a3.85,3.85,0,0,1-1,0,3.06,3.06,0,0,0-1.91.23,2.18,2.18,0,0,1-1.51.18,3.5,3.5,0,0,0-.7-.08,4.83,4.83,0,0,0-2.64,1,2,2,0,0,0-.29.29.47.47,0,0,0,0,.64l.18.2a10.05,10.05,0,0,0,1.21,1.23c.54.43,1.12.82,1.69,1.21l.77.52.19.13a2.27,2.27,0,0,1,.54.41,4.24,4.24,0,0,0,1.74,1.09,3.75,3.75,0,0,1,1.54,1c.33.36.66.71,1,1a1.23,1.23,0,0,1,.35,1.49c-.54,1-1,2-1.6,2.91a1.94,1.94,0,0,0-.45,1.18,4,4,0,0,1-.83,2.66,3,3,0,0,0-.55,1.43,6,6,0,0,1-1.42,3.15,1.25,1.25,0,0,0-.33.82l0,.29c0,.22.06.43.11.65a1,1,0,0,0,.58.74,1,1,0,0,0,.91-.14c.13-.08.25-.18.37-.27a3.73,3.73,0,0,1,.46-.35l.22-.14a3.85,3.85,0,0,1,1.13-.56,3.27,3.27,0,0,0,1.77-1.14,2.11,2.11,0,0,1,.95-.68,2.74,2.74,0,0,0,1.34-1,4,4,0,0,1,.79-.65l.23-.16.43-.27a5.12,5.12,0,0,0,.56-.39,7.94,7.94,0,0,0,.87-.87,4.34,4.34,0,0,1,2.07-1.26,4,4,0,0,0,1-.51,2.25,2.25,0,0,1,3,.06l.21.16c.51.4,1,.82,1.57,1.18a2.17,2.17,0,0,0,.85.34,3.12,3.12,0,0,1,1.67.8,1.79,1.79,0,0,0,.7.41,3,3,0,0,1,1.9,1.12A2.47,2.47,0,0,0,523,602a2.5,2.5,0,0,1,.86.29,8.35,8.35,0,0,0,.94.5,5.39,5.39,0,0,1,1.91,1.32c.07.08.27.32.81.08a1.21,1.21,0,0,0,.82-1.72,2.28,2.28,0,0,0-.15-.44l-.33-.71-.28-.56c-.2-.45-.38-.91-.56-1.38a11,11,0,0,0-1.25-2.52,1.21,1.21,0,0,1-.14-.28l0-.09a2.46,2.46,0,0,1-.17-.27,2.52,2.52,0,0,0-.44-.59,7.24,7.24,0,0,1-1.79-3.08,1.67,1.67,0,0,1,1-2.3c.66-.35,1.31-.72,2-1.09l.56-.32.1-.07.15-.1,1.26-.77a3.07,3.07,0,0,1,.31-.17,2.23,2.23,0,0,0,.43-.26,4,4,0,0,1,1.93-.83A3.94,3.94,0,0,0,532.32,586.07Zm-6.07-.12a2.94,2.94,0,0,1-1.65,1,3.55,3.55,0,0,0-1.58.86,7.07,7.07,0,0,1-2.3,1.29,3.66,3.66,0,0,0-.46.18c-.63.26-.77.51-.69,1.17a3.07,3.07,0,0,0,1.15,2.38,2.14,2.14,0,0,1,.84,1.59,4.19,4.19,0,0,0,.22.84l.1.33.09.25a3.5,3.5,0,0,1,.14.46,1.05,1.05,0,0,1-.41,1.2,1.2,1.2,0,0,1-1.32,0,2.81,2.81,0,0,1-.61-.55,1.82,1.82,0,0,0-1.36-.66,2.91,2.91,0,0,1-1.45-.5c-.19-.13-.39-.24-.59-.36s-.46-.26-.68-.41-.34-.22-.51-.34a7.48,7.48,0,0,0-.66-.43,5.8,5.8,0,0,0-1-.43,2.91,2.91,0,0,0-2.52.31,3.68,3.68,0,0,0-1.55,1.29,2.61,2.61,0,0,1-1.46,1.11,2,2,0,0,0-.76.45,9.3,9.3,0,0,1-2.59,1.9l-.12.06a1.76,1.76,0,0,1-.75.2.94.94,0,0,1-.71-.29,1.2,1.2,0,0,1,0-1.47,1.43,1.43,0,0,1,.19-.29,7.24,7.24,0,0,0,1.39-2.93l0-.1a10.87,10.87,0,0,1,1.27-3,3.32,3.32,0,0,0,.39-.9.79.79,0,0,0-.37-1l-.52-.43c-.2-.17-.41-.34-.62-.49l-.45-.3c-.14-.08-.28-.16-.41-.25-.39-.27-.79-.54-1.16-.84s-.56-.47-.84-.71l-.54-.45a1.09,1.09,0,0,1-.53-.95,1,1,0,0,1,.8-.82c.34-.11.7-.2,1-.28l.38-.1.86.1a2.14,2.14,0,0,0,1.49-.28,2.72,2.72,0,0,1,1.2-.33,6.86,6.86,0,0,1,.91,0h.59a1.82,1.82,0,0,0,1.57-.92,5,5,0,0,0,.95-2.36,3.5,3.5,0,0,1,.77-2,1.42,1.42,0,0,0,.31-1,3.12,3.12,0,0,1,.83-2.13.94.94,0,0,1,.93-.37.85.85,0,0,1,.58.72,2.45,2.45,0,0,0,.75,1.3,3.89,3.89,0,0,1,1,2.22,3.11,3.11,0,0,0,.71,1.74,2,2,0,0,1,.34.54,3.87,3.87,0,0,0,1.66,1.7,2.28,2.28,0,0,0,.75.22c.38.07.73.12,1.08.17s1,.15,1.44.24a5.07,5.07,0,0,0,1.61.08,9,9,0,0,1,1.56,0h.11a2.05,2.05,0,0,1,.75.27,1.6,1.6,0,0,1,.93,1.09A1.58,1.58,0,0,1,526.25,586ZM417.16,555.23a1.79,1.79,0,0,0,.86.35h0c.88.1,1.79.16,2.79.18h.36a9.1,9.1,0,0,1,2.24.22c.24.07.57.09.89-.42a.9.9,0,0,0,0-1.13c-.28-.37-.58-.72-.88-1.08l-.52-.62-.6-.73-.3-.4c-.2-.25-.39-.5-.6-.73a2.73,2.73,0,0,1-.79-1.32,2.25,2.25,0,0,0-1.35-1.6,4,4,0,0,1-.45-.26,2.42,2.42,0,0,1-1-1.69,2.46,2.46,0,0,1,.59-1.9,4.68,4.68,0,0,0,.63-1,5.93,5.93,0,0,1,2.67-2.86,3.63,3.63,0,0,0,1.25-1,5.86,5.86,0,0,1,1.15-1.09,2.89,2.89,0,0,0,1-1c.18-.33.35-.67.52-1l.3-.6c.31-.6.2-.92-.46-1.36a1.29,1.29,0,0,0-.61-.13c-.89,0-1.79,0-2.69,0a2.78,2.78,0,0,0-.72.1,2.79,2.79,0,0,1-1.46.08,2.34,2.34,0,0,0-1.54.12,4.3,4.3,0,0,1-2.14.37H416a5.58,5.58,0,0,1-.71,0,1.21,1.21,0,0,1-.86-.42,1.11,1.11,0,0,1-.19-.89,8.6,8.6,0,0,1,.45-1.69,2.62,2.62,0,0,0,.28-1.19,3,3,0,0,1,.38-1.7,1.73,1.73,0,0,0,.23-.63,5.08,5.08,0,0,1,.67-2.25,1,1,0,0,0,.12-.29,7,7,0,0,1,.75-2,1.28,1.28,0,0,0-.27-1.63c-.17-.19-.35-.37-.53-.54-.51-.51-.63-.51-1.14-.06a5,5,0,0,1-1.61.95,2.94,2.94,0,0,0-.95.6,9.46,9.46,0,0,0-.95,1l-.1.11a10.51,10.51,0,0,0-.86,1.13,2.85,2.85,0,0,1-1.49,1.28,2.32,2.32,0,0,0-1,.68l-.26.28a11.23,11.23,0,0,1-.84.85,2,2,0,0,1-1.54.56,2,2,0,0,1-1.38-.93l-.1-.15a2.61,2.61,0,0,0-.43-.53,5.08,5.08,0,0,1-1.58-2.48,3.43,3.43,0,0,0-.83-1.33c-.64-.67-1.18-1.27-1.66-1.83a3,3,0,0,1-.4-.71l-.07-.16c-.06-.14-.11-.27-.16-.41a4.61,4.61,0,0,0-.22-.51,1.37,1.37,0,0,0-1.53-.69c-.22.09-1.36.57-1.21,1.57a5.63,5.63,0,0,1-.37,2.76,2.6,2.6,0,0,0-.15,1,6.67,6.67,0,0,1-.19,2.77,5.93,5.93,0,0,0-.31,2.57,1.51,1.51,0,0,1-.9,1.59,3.24,3.24,0,0,1-2.72.42l-.33-.09a3.94,3.94,0,0,1-.49-.14,3,3,0,0,0-1.81-.16,1.79,1.79,0,0,1-.83,0,8.2,8.2,0,0,0-1.73-.25A12.1,12.1,0,0,1,385,531a7.45,7.45,0,0,0-3.26.4c-.17,0-.71.19-.59,1a2.46,2.46,0,0,0,.07.29,3.86,3.86,0,0,1,.1.49,1.87,1.87,0,0,0,1,1.51,3.21,3.21,0,0,1,1.12,1.21,10.5,10.5,0,0,0,1.74,2.11c.2.2.39.4.58.61a4.57,4.57,0,0,1,1.64,1.66l.31.42a1.1,1.1,0,0,1,0,1.36l-.11.15a3.53,3.53,0,0,1-2.12,1.61,2.42,2.42,0,0,0-1.39.78,4.76,4.76,0,0,1-2,1.52l-.13.08-.13.09-.77.45-1.66,1L379,548c-.49.3-1,.61-1.47.94a1.52,1.52,0,0,0-.63,1.36c0,.54.66,1.3,1.1,1.3,1.15,0,2.17,0,3.13-.07l.57,0a4.79,4.79,0,0,1,2.6.24A4.38,4.38,0,0,0,386,552a16.9,16.9,0,0,1,2.11.21,1.75,1.75,0,0,1,1.23.69,1.8,1.8,0,0,1,.12,1.44,4.08,4.08,0,0,0-.06,1.4c.09.62.13,1.26.17,1.88v.14a1.42,1.42,0,0,1-.13.76,6.3,6.3,0,0,0-.55,1.85l-.12.6a2.79,2.79,0,0,0,0,1.35,3.69,3.69,0,0,1-.12,2.45,2,2,0,0,0-.16.8,7.77,7.77,0,0,0,.08.95l.06.56c0,.46.23.59.44.66a.91.91,0,0,0,1-.16,5.44,5.44,0,0,0,.41-.42,3.63,3.63,0,0,1,1.59-1.07,2.37,2.37,0,0,0,.82-.45c.77-.69,1.59-1.46,2.57-2.43a1.35,1.35,0,0,0,.33-.56,2.79,2.79,0,0,1,1.58-1.67,3.57,3.57,0,0,0,.91-.62,1.61,1.61,0,0,0,.31-.45,2.4,2.4,0,0,1,.16-.27,2,2,0,0,1,1.57-1h.08a2,2,0,0,1,1.56.83s.08.12.12.18a1.13,1.13,0,0,0,.1.13l.56.71c.5.64,1,1.28,1.53,1.89l.09.11a4.26,4.26,0,0,1,.78,1.14,2.28,2.28,0,0,0,1.27,1.34,3.6,3.6,0,0,1,2.14,2.35,2.61,2.61,0,0,0,.26.56,1.09,1.09,0,0,0,.73.47.64.64,0,0,0,.52-.12,3.5,3.5,0,0,0,1.24-2,7.6,7.6,0,0,0,.1-2.07,13.31,13.31,0,0,1,.08-2.78,20.54,20.54,0,0,1,.62-3.16c.18-.75.38-1.52.5-2.29a1,1,0,0,1,.19-.47l.06-.08a1.19,1.19,0,0,1,.53-.45C414.48,554.62,415.86,554.19,417.16,555.23Zm-4.52-3.39c-.3,0-.6,0-.9-.05h-.49a.89.89,0,0,0-1,.7,5.75,5.75,0,0,0-.18,1l0,.17c-.08.54-.13,1.09-.19,1.65v.18a8.48,8.48,0,0,0-.06.87,3.38,3.38,0,0,1-.46,1.87,2.14,2.14,0,0,0-.18,1.76,7.2,7.2,0,0,1,.16,1.15,1,1,0,0,1-.69,1,.84.84,0,0,1-.29,0,1,1,0,0,1-.79-.4,2.56,2.56,0,0,1-.2-.26l-.12-.16a3.74,3.74,0,0,0-1.11-.94,6,6,0,0,1-2.66-2.87,3.6,3.6,0,0,0-1-1.42,5.28,5.28,0,0,1-.8-.84c-.54-.66-.68-.68-1.4-.29a14.51,14.51,0,0,0-3.3,2.7c-.32.31-.65.6-1,.89s-.45.37-.66.57a8.36,8.36,0,0,0-.85.88,2.54,2.54,0,0,1-1.43,1,1.08,1.08,0,0,1-1-.12,1,1,0,0,1-.34-.84,13.59,13.59,0,0,1,.18-2.37c.1-.57.23-1.14.36-1.7l.24-1.09a1.52,1.52,0,0,0,0-.56,4,4,0,0,1,.13-2,3.06,3.06,0,0,0-.21-2.19,1.41,1.41,0,0,0-.49-.42,1.08,1.08,0,0,0-.32-.14,1.4,1.4,0,0,1-.36-.13,2.6,2.6,0,0,0-2.41,0,2.38,2.38,0,0,1-1.71.07c-.44-.12-.89-.21-1.35-.3a1,1,0,0,1-.86-.55.94.94,0,0,1,.26-1c.14-.15.28-.3.43-.44l.44-.41c.43-.42.87-.83,1.32-1.22a2.33,2.33,0,0,1,1.07-.54,3.67,3.67,0,0,0,1.67-.8l.1-.08a8.33,8.33,0,0,1,1.28-.89,1.3,1.3,0,0,0,.68-.9,1.2,1.2,0,0,0-.27-1,8.4,8.4,0,0,0-1.52-1.52,4.31,4.31,0,0,1-1.14-1.42,5.37,5.37,0,0,0-1.42-1.7,4.67,4.67,0,0,1-1-1.15.82.82,0,0,1,.62-1.33,5.1,5.1,0,0,1,.87,0v-.13l1.21.14c.66.08,1.32.16,2,.22a4.39,4.39,0,0,0,1.11,0,4.65,4.65,0,0,1,2.08.05c1,.27,1.47.18,1.85-1a24.14,24.14,0,0,0,.65-2.33,3.76,3.76,0,0,0,.05-1.1,2.2,2.2,0,0,1,.33-1.54,1.73,1.73,0,0,0,.28-1.17,4.28,4.28,0,0,1,.06-1.06.72.72,0,0,1,1.3-.37l.42.42a5,5,0,0,1,1.63,2.43,1,1,0,0,0,.24.44,5.45,5.45,0,0,1,1.07,1.68,1.59,1.59,0,0,0,.35.51c.44.43,1,.91,1.51,1.35a1,1,0,0,0,1.55-.08,3.86,3.86,0,0,1,1.62-1,1.89,1.89,0,0,0,1-.93,3.42,3.42,0,0,1,1.28-1.22,4,4,0,0,0,.63-.49l.32-.28.1-.08a1.08,1.08,0,0,1,1.27-.31,1,1,0,0,1,.46,1.21l0,.15a5.28,5.28,0,0,1-.58,2,1.41,1.41,0,0,0-.15.68,3.49,3.49,0,0,1-.64,2.17,2,2,0,0,0-.2.41,1.36,1.36,0,0,0,.33,1.57,1.79,1.79,0,0,0,1.7.61,7.42,7.42,0,0,1,1.41-.05h.64l2.58-.06a3.42,3.42,0,0,1,.65,0,1.22,1.22,0,0,1,1,.7,1.15,1.15,0,0,1-.16,1.12c-.63.88-1.37,1.91-2.16,2.85a5,5,0,0,1-1.35,1.06,3.66,3.66,0,0,0-1.7,1.88,1.45,1.45,0,0,0,.1,1.3,5.74,5.74,0,0,0,.43.66c.44.61.89,1.21,1.35,1.79a3.12,3.12,0,0,0,.45.44l.71.56,1,.77c.31.26.76.63.56,1.26a1.18,1.18,0,0,1-1.22.75,11.89,11.89,0,0,0-1.18.15,4.18,4.18,0,0,1-2.28-.3A4.67,4.67,0,0,0,412.64,551.84Zm91.84,46.7Zm1-53.34h0Zm-89.62,47.27a.85.85,0,0,1,.23-.44,9.23,9.23,0,0,0,2.21-3.09,6.12,6.12,0,0,1,.59-.91c.17-.24.35-.48.5-.73a6.68,6.68,0,0,1,1.56-1.85,5.43,5.43,0,0,0,.95-1.09l.15-.22c.58-.8,1.16-1.61,1.71-2.44a7.92,7.92,0,0,0,.68-1.25,1.66,1.66,0,0,1,.59-.79,3.19,3.19,0,0,0,1.09-1.32,11.19,11.19,0,0,1,2.23-3.14,6.44,6.44,0,0,0,1.86-2.67,3.3,3.3,0,0,1,.58-.91,5.58,5.58,0,0,0,1-1.64,2.91,2.91,0,0,1,1-1.31,9.54,9.54,0,0,0,2.75-3.7,1.74,1.74,0,0,1,.35-.59,12,12,0,0,1,1.72-1.23.61.61,0,0,1,.3-.08.91.91,0,0,1,.5.17,1,1,0,0,1,.43,1l.37,0h0l-.38,0a.74.74,0,0,0,0,.27,2.38,2.38,0,0,1-1,2.1,1.83,1.83,0,0,0-.51.64,4.12,4.12,0,0,1-.84,1.21l-.26.3a5.48,5.48,0,0,0-.83,1.42,2.87,2.87,0,0,1-.86,1.13,6.55,6.55,0,0,0-2,2.55.46.46,0,0,1-.07.14c-.66.89-1.32,1.79-2,2.68l-.1.1a1,1,0,0,0-.28.41,6.56,6.56,0,0,1-.94,1.63,9.12,9.12,0,0,0-.73,1.1,3.44,3.44,0,0,1-.67.8,7.59,7.59,0,0,0-1.11,1.37,5.59,5.59,0,0,1-.91,1.12,8.87,8.87,0,0,0-1.81,2.49,4.12,4.12,0,0,1-.74,1,4.55,4.55,0,0,0-.93,1.31,5.24,5.24,0,0,1-1.31,1.71,4.31,4.31,0,0,0-.55.68l-.23.31-.2.28a2,2,0,0,1-.41.48,2.69,2.69,0,0,0-1.17,1.65.87.87,0,0,1-.39.55,1.54,1.54,0,0,1-1.14.13A1.19,1.19,0,0,1,415.84,592.47Zm121.58-98.1.57-.07,2.06-.27a1.71,1.71,0,0,0,.38-.13l.22-.08.22-.09c.18-.07.36-.14.54-.19a3,3,0,0,0,2.36-2.49,3.67,3.67,0,0,1,.67-1.57,1.7,1.7,0,0,0,.09-2.15,3.62,3.62,0,0,1-.54-1.68,1.75,1.75,0,0,0-.25-.8,10.05,10.05,0,0,0-.89-1.2,3.34,3.34,0,0,0-2.05-1.35,3,3,0,0,1-.64-.21,2.88,2.88,0,0,0-1.24-.26,6.5,6.5,0,0,0-1.94.39l-.88.32c-.31.12-.62.24-.94.34a2.61,2.61,0,0,0-1,.56,6.68,6.68,0,0,0-1.44,2,6.54,6.54,0,0,0-.66,2.77,2.5,2.5,0,0,0,.21.9c.11.29.24.56.37.84s.2.41.29.62a4.91,4.91,0,0,0,1.25,1.8c.57.49,1.07.94,1.54,1.42A1.81,1.81,0,0,0,537.42,494.37ZM535,487a3.25,3.25,0,0,1,3.07-2.45h0c.52,0,1,.05,1.56.1l.27,0a1.87,1.87,0,0,1,1.33.8,4.21,4.21,0,0,1,.92,2.87,2,2,0,0,1-1.17,2.06l-.38.22c-.4.23-.8.46-1.21.68a3,3,0,0,1-1.4.35,4.56,4.56,0,0,1-2-.53,1.68,1.68,0,0,1-.78-.95A5.5,5.5,0,0,1,535,487Zm10.59-61-2.38-1.66c-.09-.06-.18-.14-.27-.21s-.27-.21-.41-.31l-.34-.22a11.14,11.14,0,0,0-1.31-.75,1.27,1.27,0,0,0-1.21,0,1.29,1.29,0,0,0-.54,1.11c-.06.86-.1,1.72-.14,2.58l0,1.09.06.39,0,0a7.3,7.3,0,0,1,0,.81,6.36,6.36,0,0,1-.18,1.2,3.1,3.1,0,0,0-.15,1.49.87.87,0,0,1-.53,1l-.2.11a3.87,3.87,0,0,1-.66.31.75.75,0,0,1-.62,0,.83.83,0,0,1-.31-.62c-.06-.41-.13-.82-.21-1.22l-.13-.73a1.57,1.57,0,0,1,0-.28c0-.91,0-1.81,0-2.71V427c0-.15,0-.31,0-.46l.05-1q0-1,.09-1.95a1,1,0,0,0-.48-1.08,1,1,0,0,0-.5-.13,1.17,1.17,0,0,0-.69.23,5.07,5.07,0,0,0-1.68,1.73,1.91,1.91,0,0,1-1.58,1.2,2.62,2.62,0,0,0-1.62,1,1.1,1.1,0,0,1-1.13.33.64.64,0,0,1-.56-.44,1.78,1.78,0,0,1,.28-1.93,5,5,0,0,1,2-1.53,4.13,4.13,0,0,0,.92-.52l.36-.24,1.39-.83a3.64,3.64,0,0,0,.63-.42,2,2,0,0,0,.71-1.41,2,2,0,0,0-.58-1.47,3.7,3.7,0,0,0-.41-.37,2.8,2.8,0,0,1-.31-.28l-.19-.19a12.91,12.91,0,0,1-1-1.09,2.53,2.53,0,0,0-1.27-1,2.5,2.5,0,0,1-1.11-.74,2,2,0,0,0-.61-.5,5,5,0,0,1-1.29-1,2.64,2.64,0,0,0-.9-.49A.94.94,0,0,1,526,411c.2-.41.41-.64.63-.71a1.22,1.22,0,0,1,.94.21,1.53,1.53,0,0,1,.21.14,2.68,2.68,0,0,0,.28.18l.38.21a5.65,5.65,0,0,0,1.1.55,6.05,6.05,0,0,1,1.93,1.13,9,9,0,0,0,2.75,1.65,1.44,1.44,0,0,0,1.6-.17,1.48,1.48,0,0,0,.39-1.65,6.06,6.06,0,0,1-.25-2.37c0-.26,0-.51,0-.76a1.78,1.78,0,0,1,.08-.48l0-.19c0-.17.09-.33.13-.5s.16-.59.22-.89a1.29,1.29,0,0,1,.78-1,1.35,1.35,0,0,1,1.28.16.53.53,0,0,1,.24.47l0,.71a9.45,9.45,0,0,1-.1,2.61,4,4,0,0,0-.06,1c0,.11,0,.21,0,.32s0,.43,0,.64,0,.6,0,.9a2.65,2.65,0,0,0,.46,1.7,1.27,1.27,0,0,0,1.58.55,2.57,2.57,0,0,0,1.75-1.43,2.78,2.78,0,0,1,1.45-1.47c.65-.32,1.21-.61,1.73-.92a2.55,2.55,0,0,0,.53-.43l.16-.16a2.28,2.28,0,0,0,.22-.22,1.43,1.43,0,0,1,.33-.29.88.88,0,0,1,.76-.05,1.19,1.19,0,0,1,.68.77,1.87,1.87,0,0,1-.88,2.29,3.81,3.81,0,0,1-.57.29,4.52,4.52,0,0,0-1.5,1,1.91,1.91,0,0,1-.59.44,7.78,7.78,0,0,0-2.22,1.41c-.3.26-.62.5-.94.74l-.52.39a1.38,1.38,0,0,0-.63,1,1.31,1.31,0,0,0,.53,1,14,14,0,0,0,1.88,1.38,3.89,3.89,0,0,1,1,.8,3.62,3.62,0,0,0,2.56,1.43.83.83,0,0,1,.68.39c.23.37.42.76.62,1.15l.2.46a1.15,1.15,0,0,1-.57.94,1,1,0,0,1-1,.14,5.83,5.83,0,0,1-.62-.39ZM487,564.62c-.64.13-1,0-1.29-.45a1.25,1.25,0,0,1,.13-1.43,1,1,0,0,1,.23-.27,6.45,6.45,0,0,0,1.92-2.32l.27-.47a4.48,4.48,0,0,1,1.07-1.34,2.88,2.88,0,0,0,.59-.66c.42-.59.84-1.2,1.25-1.81a5.36,5.36,0,0,0,.48-.85,4.75,4.75,0,0,1,1.35-1.87,8.74,8.74,0,0,0,2-2.68l.13-.22a3.28,3.28,0,0,1,.72-.9,5,5,0,0,0,.92-1.11,11.35,11.35,0,0,1,2.12-2.36.45.45,0,0,1,.33-.14h.09a.63.63,0,0,1,.43.37,3.34,3.34,0,0,1,.19.7c0,.07,0,.14,0,.19a4.58,4.58,0,0,1-.86,2.45,10.1,10.1,0,0,1-1.35,1.53,3,3,0,0,0-.95,1.52,3.73,3.73,0,0,1-.83,1.54,6.66,6.66,0,0,0-.79,1.11,7.43,7.43,0,0,1-2.28,2.54h0a3.27,3.27,0,0,0-1.29,1.69,1.24,1.24,0,0,1-.57.68,2.68,2.68,0,0,0-.92,1.15,2.13,2.13,0,0,1-.51.7,5.19,5.19,0,0,0-1.41,2C488.06,564.34,487.66,564.5,487,564.62Zm-47.71-38.73a1.57,1.57,0,0,1-.81.85,2,2,0,0,0-1.1,1.26,2.88,2.88,0,0,1-.88,1.32,1.75,1.75,0,0,0-.38.42,5.52,5.52,0,0,1-1.59,1.71,1.67,1.67,0,0,0-.49.58,1.74,1.74,0,0,0-.11.18,1.69,1.69,0,0,1-1.44.87h0a1.16,1.16,0,0,1-1.21-.82,1.08,1.08,0,0,1,0-.6l.14-.27a4.65,4.65,0,0,1,1.32-1.84,4.6,4.6,0,0,0,1-1.14c.24-.36.47-.73.71-1.11s.55-.89.85-1.32a6.85,6.85,0,0,1,.73-.81c.18-.18.35-.35.51-.53.39-.44.79-.91,1.17-1.41a5.68,5.68,0,0,1,1.49-1.49,7.11,7.11,0,0,0,2.05-2.25,6.45,6.45,0,0,1,1.76-1.92,4.51,4.51,0,0,0,.47-.4l.29-.24a1.1,1.1,0,0,1,.67-.22l.29,0a1.05,1.05,0,0,1,.73.55.71.71,0,0,1,0,.43,1.17,1.17,0,0,1-.2.35l-.1.15-.3.43a8.92,8.92,0,0,0-.61.94,3.48,3.48,0,0,1-1,1.25,2.34,2.34,0,0,0-.73,1,6.86,6.86,0,0,1-1.9,2.44A4.78,4.78,0,0,0,439.32,525.89ZM413.4,466.2a2.18,2.18,0,0,1-.64.3l-.16.05a5.67,5.67,0,0,0-1.68,1.12l-.37.31a1,1,0,0,0-.22.48,2.81,2.81,0,0,1-1,1.61,1.68,1.68,0,0,0-.61,1.31,2.61,2.61,0,0,1-.31,1.15,4.22,4.22,0,0,0-.46,2l0,.15a3.2,3.2,0,0,0,.22.69,3.87,3.87,0,0,1,.42,1.64,1.27,1.27,0,0,0,.45,1c.61.58,1.2,1.18,1.79,1.78l.45.45a3.5,3.5,0,0,1,.42.53,1.4,1.4,0,0,0,1.09.7l.56.11a20.4,20.4,0,0,1,2.5.56,4.67,4.67,0,0,0,3.27-.31,4.56,4.56,0,0,1,1.07-.33,1.83,1.83,0,0,0,1.23-.71,4.23,4.23,0,0,1,1.32-1.05,1.85,1.85,0,0,0,.6-.56,12.6,12.6,0,0,0,.78-1.43,9.49,9.49,0,0,0,1-3.87,3.52,3.52,0,0,0-.12-1.38c-.09-.25-.15-.51-.22-.76a6.09,6.09,0,0,0-.17-.61l-.08-.26a2.64,2.64,0,0,0-.34-.79c-.78-.93-1.56-1.78-2.33-2.54a9.47,9.47,0,0,0-2.76-1.67l-.69-.33a1,1,0,0,0-.45-.07c-.81,0-1.62.06-2.43.11A4,4,0,0,0,413.4,466.2Zm6.51,2.93a2.7,2.7,0,0,1,.74.77l.13.17c.12.16.22.32.32.48a3.45,3.45,0,0,0,.43.59,2.18,2.18,0,0,1,.65,1.88l0,.45,0,.57a7.63,7.63,0,0,1,0,.83,4.38,4.38,0,0,1-1,2.51,5.84,5.84,0,0,1-3,1.93,6.3,6.3,0,0,1-1.65.29,3.63,3.63,0,0,1-1.27-.27l-.66-.21a8.27,8.27,0,0,1-.88-.3,3.59,3.59,0,0,1-1.92-1.75,6.08,6.08,0,0,1-.79-2.74,4,4,0,0,1,.43-1.92,2.57,2.57,0,0,0,.26-.68,3.65,3.65,0,0,1,2-2.46c.63-.34,1.27-.63,1.77-.85a2.07,2.07,0,0,1,.9-.22A6.86,6.86,0,0,1,419.91,469.13Z" transform="translate(-376.94 -406.27)"/></svg>