<?xml version="1.0" encoding="UTF-8"?>
<svg xmlns="http://www.w3.org/2000/svg" xmlns:xlink="http://www.w3.org/1999/xlink" width="10.375rem" height="2.125rem" viewBox="0 0 165 34" version="1.1">
<g id="surface1">
<path style=" stroke:none;fill-rule:nonzero;fill:rgb(0%,0%,0%);fill-opacity:1;" d="M 32.792969 1.554688 C 28.84375 -0.925781 23.640625 -0.335938 19 2.59375 C 14.378906 -0.335938 9.171875 -0.925781 5.226562 1.554688 C -1.015625 5.472656 -1.773438 15.570312 3.53125 24.101562 C 7.445312 30.394531 13.5625 34.082031 19.011719 34.011719 C 24.457031 34.082031 30.574219 30.394531 34.488281 24.101562 C 39.789062 15.570312 39.035156 5.472656 32.792969 1.554688 Z M 6.402344 22.300781 C 5.308594 20.558594 4.484375 18.65625 3.953125 16.667969 C 3.484375 14.9375 3.304688 13.144531 3.421875 11.355469 C 3.660156 8.199219 4.9375 5.746094 7.019531 4.4375 C 9.101562 3.132812 11.851562 3.050781 14.785156 4.222656 C 15.222656 4.398438 15.660156 4.601562 16.089844 4.828125 C 14.460938 6.320312 13.046875 8.03125 11.882812 9.910156 C 8.660156 15.089844 7.675781 20.855469 8.800781 25.453125 C 7.902344 24.480469 7.101562 23.425781 6.402344 22.300781 Z M 34.066406 16.664062 C 33.539062 18.65625 32.710938 20.554688 31.617188 22.300781 C 30.921875 23.425781 30.117188 24.484375 29.222656 25.457031 C 30.226562 21.335938 29.542969 16.289062 27.078125 11.554688 C 27 11.398438 26.855469 11.28125 26.6875 11.234375 C 26.515625 11.1875 26.335938 11.21875 26.1875 11.3125 L 18.5 16.136719 C 18.359375 16.226562 18.257812 16.367188 18.222656 16.53125 C 18.183594 16.695312 18.210938 16.867188 18.300781 17.007812 L 19.429688 18.820312 C 19.515625 18.960938 19.65625 19.0625 19.820312 19.101562 C 19.984375 19.136719 20.152344 19.109375 20.292969 19.019531 L 25.277344 15.894531 C 25.4375 16.378906 25.597656 16.863281 25.71875 17.351562 C 26.191406 19.078125 26.371094 20.871094 26.253906 22.65625 C 26.015625 25.808594 24.738281 28.265625 22.65625 29.570312 C 21.582031 30.230469 20.351562 30.589844 19.09375 30.609375 L 18.933594 30.609375 C 17.675781 30.589844 16.445312 30.230469 15.371094 29.570312 C 13.289062 28.265625 12.011719 25.808594 11.773438 22.65625 C 11.65625 20.867188 11.835938 19.070312 12.304688 17.34375 C 13.386719 13.34375 15.617188 9.753906 18.722656 7.023438 C 20.058594 5.84375 21.585938 4.894531 23.234375 4.21875 C 26.15625 3.050781 28.914062 3.125 30.996094 4.433594 C 33.082031 5.742188 34.355469 8.199219 34.59375 11.351562 C 34.710938 13.140625 34.535156 14.933594 34.066406 16.664062 Z M 73.742188 12.898438 C 69.699219 12.898438 66.433594 16.066406 66.433594 20.101562 C 66.433594 24.105469 69.699219 27.222656 73.742188 27.222656 C 77.8125 27.222656 81.078125 24.109375 81.078125 20.101562 C 81.078125 16.070312 77.816406 12.898438 73.742188 12.898438 Z M 73.742188 23.457031 C 71.878906 23.457031 70.460938 21.945312 70.460938 20.074219 C 70.460938 18.203125 71.878906 16.664062 73.742188 16.664062 C 75.632812 16.664062 77.050781 18.207031 77.050781 20.078125 C 77.050781 21.949219 75.632812 23.464844 73.742188 23.464844 Z M 90.1875 7.363281 L 82.753906 7.363281 C 82.589844 7.363281 82.433594 7.425781 82.320312 7.542969 C 82.203125 7.65625 82.140625 7.8125 82.144531 7.976562 L 82.144531 26.191406 C 82.132812 26.363281 82.191406 26.527344 82.308594 26.652344 C 82.421875 26.773438 82.585938 26.84375 82.753906 26.839844 L 90.1875 26.839844 C 96.140625 26.839844 100.273438 22.863281 100.273438 17.078125 C 100.273438 11.257812 96.140625 7.363281 90.1875 7.363281 Z M 90.363281 22.992188 L 86.296875 22.992188 L 86.296875 11.203125 L 90.363281 11.203125 C 93.65625 11.203125 95.929688 13.679688 95.929688 17.070312 C 95.929688 20.410156 93.65625 22.992188 90.363281 22.992188 Z M 115.074219 13.289062 L 112.28125 13.289062 C 111.960938 13.316406 111.710938 13.578125 111.699219 13.902344 L 111.699219 14.734375 C 111.0625 13.679688 109.625 12.898438 107.832031 12.898438 C 104.347656 12.898438 101.078125 15.652344 101.078125 20.046875 C 101.078125 24.417969 104.316406 27.222656 107.804688 27.222656 C 109.605469 27.222656 111.070312 26.445312 111.707031 25.386719 L 111.707031 26.25 C 111.710938 26.570312 111.96875 26.828125 112.289062 26.832031 L 115.082031 26.832031 C 115.238281 26.835938 115.390625 26.777344 115.5 26.664062 C 115.609375 26.554688 115.667969 26.402344 115.664062 26.25 L 115.664062 13.902344 C 115.671875 13.742188 115.609375 13.585938 115.5 13.46875 C 115.386719 13.355469 115.234375 13.289062 115.074219 13.289062 Z M 108.574219 23.488281 C 106.722656 23.488281 105.332031 22.058594 105.332031 20.078125 C 105.332031 18.09375 106.722656 16.664062 108.574219 16.664062 C 110.425781 16.664062 111.8125 18.089844 111.8125 20.074219 C 111.8125 22.058594 110.425781 23.488281 108.574219 23.488281 Z M 130.769531 7.363281 L 127.972656 7.363281 C 127.816406 7.359375 127.660156 7.417969 127.546875 7.53125 C 127.433594 7.640625 127.367188 7.789062 127.367188 7.949219 L 127.367188 14.679688 C 126.722656 13.679688 125.261719 12.898438 123.433594 12.898438 C 119.972656 12.898438 116.765625 15.652344 116.765625 20.046875 C 116.765625 24.417969 120 27.222656 123.488281 27.222656 C 125.289062 27.222656 126.644531 26.445312 127.394531 25.386719 L 127.394531 26.25 C 127.394531 26.570312 127.652344 26.832031 127.972656 26.832031 L 130.769531 26.832031 C 130.925781 26.835938 131.074219 26.777344 131.183594 26.664062 C 131.292969 26.554688 131.355469 26.40625 131.351562 26.25 L 131.351562 7.953125 C 131.355469 7.796875 131.296875 7.644531 131.183594 7.53125 C 131.074219 7.421875 130.925781 7.359375 130.769531 7.363281 Z M 124.265625 23.523438 C 122.421875 23.523438 121.042969 22.078125 121.042969 20.074219 C 121.042969 18.070312 122.425781 16.625 124.265625 16.625 C 126.105469 16.625 127.488281 18.070312 127.488281 20.074219 C 127.488281 22.078125 126.109375 23.523438 124.265625 23.523438 Z M 146.457031 7.363281 L 143.667969 7.363281 C 143.507812 7.359375 143.355469 7.417969 143.242188 7.53125 C 143.125 7.640625 143.0625 7.789062 143.058594 7.949219 L 143.058594 14.679688 C 142.421875 13.679688 140.953125 12.898438 139.128906 12.898438 C 135.667969 12.898438 132.457031 15.652344 132.457031 20.046875 C 132.457031 24.417969 135.695312 27.222656 139.183594 27.222656 C 140.984375 27.222656 142.335938 26.445312 143.085938 25.386719 L 143.085938 26.25 C 143.085938 26.570312 143.347656 26.832031 143.667969 26.832031 L 146.457031 26.832031 C 146.613281 26.835938 146.761719 26.777344 146.875 26.664062 C 146.984375 26.554688 147.042969 26.402344 147.039062 26.25 L 147.039062 7.953125 C 147.042969 7.796875 146.984375 7.644531 146.875 7.53125 C 146.765625 7.421875 146.613281 7.359375 146.457031 7.363281 Z M 139.953125 23.523438 C 138.109375 23.523438 136.730469 22.078125 136.730469 20.074219 C 136.730469 18.070312 138.117188 16.625 139.953125 16.625 C 141.792969 16.625 143.175781 18.070312 143.175781 20.074219 C 143.175781 22.078125 141.804688 23.523438 139.960938 23.523438 Z M 161.765625 14.238281 L 157.59375 28.613281 C 156.789062 31.171875 154.992188 32.699219 152.195312 32.699219 C 150.925781 32.699219 149.769531 32.4375 148.859375 31.917969 C 148.332031 31.617188 147.894531 31.339844 147.894531 30.894531 C 147.894531 30.621094 147.980469 30.476562 148.144531 30.21875 L 148.972656 28.972656 C 149.207031 28.625 149.378906 28.511719 149.628906 28.511719 C 149.828125 28.515625 150.019531 28.582031 150.179688 28.703125 C 150.699219 29.042969 151.183594 29.335938 151.921875 29.335938 C 152.78125 29.335938 153.4375 29.058594 153.792969 28.027344 L 154.152344 26.835938 L 152.460938 26.835938 C 152.105469 26.847656 151.789062 26.601562 151.714844 26.25 L 147.980469 14.238281 C 147.84375 13.765625 147.96875 13.289062 148.660156 13.289062 L 151.601562 13.289062 C 151.960938 13.289062 152.210938 13.414062 152.371094 13.929688 L 155.125 23.605469 L 157.703125 13.929688 C 157.789062 13.597656 158.007812 13.289062 158.453125 13.289062 L 161.242188 13.289062 C 161.792969 13.289062 161.957031 13.679688 161.765625 14.238281 Z M 65.378906 18.511719 L 65.378906 26.191406 C 65.382812 26.359375 65.316406 26.523438 65.199219 26.644531 C 65.078125 26.761719 64.917969 26.828125 64.75 26.824219 L 62.441406 26.824219 C 62.273438 26.828125 62.109375 26.761719 61.992188 26.644531 C 61.871094 26.523438 61.808594 26.359375 61.808594 26.191406 L 61.808594 24.175781 C 60.34375 26.035156 57.796875 27.203125 54.917969 27.203125 C 49.507812 27.203125 45.277344 23.117188 45.277344 17.292969 C 45.277344 11.242188 49.84375 7.070312 55.609375 7.070312 C 59.867188 7.070312 63.269531 8.910156 64.78125 12.609375 C 64.824219 12.707031 64.847656 12.8125 64.851562 12.921875 C 64.851562 13.09375 64.734375 13.226562 64.367188 13.355469 L 61.671875 14.398438 C 61.511719 14.464844 61.328125 14.46875 61.164062 14.40625 C 61.019531 14.320312 60.90625 14.191406 60.839844 14.035156 C 59.875 12.1875 58.152344 10.933594 55.503906 10.933594 C 52.070312 10.933594 49.609375 13.628906 49.609375 17.125 C 49.609375 20.511719 51.703125 23.300781 55.601562 23.300781 C 57.65625 23.300781 59.289062 22.328125 60.050781 21.261719 L 57.617188 21.261719 C 57.449219 21.265625 57.289062 21.199219 57.167969 21.078125 C 57.050781 20.957031 56.984375 20.796875 56.988281 20.625 L 56.988281 18.539062 C 56.984375 18.371094 57.050781 18.207031 57.167969 18.089844 C 57.289062 17.96875 57.449219 17.902344 57.617188 17.90625 L 64.75 17.90625 C 64.914062 17.898438 65.074219 17.957031 65.195312 18.070312 C 65.316406 18.1875 65.382812 18.347656 65.378906 18.511719 Z M 161.839844 10.445312 L 161.839844 10.261719 C 161.839844 10.246094 161.847656 10.234375 161.855469 10.222656 C 161.863281 10.214844 161.875 10.210938 161.886719 10.210938 L 163.066406 10.210938 C 163.078125 10.210938 163.089844 10.214844 163.101562 10.222656 C 163.109375 10.234375 163.113281 10.246094 163.113281 10.261719 L 163.113281 10.445312 C 163.113281 10.457031 163.109375 10.472656 163.101562 10.480469 C 163.089844 10.488281 163.078125 10.492188 163.066406 10.492188 L 162.636719 10.492188 L 162.636719 11.660156 C 162.636719 11.6875 162.613281 11.707031 162.585938 11.710938 L 162.363281 11.710938 C 162.351562 11.710938 162.339844 11.703125 162.332031 11.695312 C 162.324219 11.6875 162.316406 11.671875 162.316406 11.660156 L 162.316406 10.492188 L 161.886719 10.492188 C 161.875 10.496094 161.863281 10.488281 161.855469 10.480469 C 161.84375 10.472656 161.839844 10.460938 161.839844 10.445312 Z M 163.902344 10.253906 L 164.222656 11.003906 L 164.546875 10.253906 C 164.550781 10.242188 164.558594 10.230469 164.570312 10.222656 C 164.585938 10.214844 164.597656 10.210938 164.613281 10.210938 L 164.988281 10.210938 C 165 10.210938 165.011719 10.214844 165.023438 10.222656 C 165.03125 10.230469 165.035156 10.246094 165.035156 10.257812 L 165.035156 11.664062 C 165.035156 11.675781 165.03125 11.6875 165.023438 11.695312 C 165.015625 11.703125 165.003906 11.710938 164.988281 11.710938 L 164.78125 11.710938 C 164.769531 11.710938 164.753906 11.703125 164.746094 11.695312 C 164.738281 11.6875 164.734375 11.675781 164.734375 11.664062 L 164.734375 10.601562 L 164.386719 11.371094 C 164.382812 11.386719 164.375 11.398438 164.363281 11.410156 C 164.347656 11.417969 164.332031 11.421875 164.316406 11.417969 L 164.148438 11.417969 C 164.132812 11.421875 164.117188 11.417969 164.105469 11.410156 C 164.09375 11.398438 164.082031 11.386719 164.078125 11.371094 L 163.734375 10.601562 L 163.734375 11.664062 C 163.734375 11.675781 163.730469 11.6875 163.722656 11.695312 C 163.714844 11.703125 163.703125 11.710938 163.691406 11.710938 L 163.476562 11.710938 C 163.464844 11.707031 163.453125 11.703125 163.445312 11.695312 C 163.433594 11.6875 163.429688 11.675781 163.433594 11.664062 L 163.433594 10.257812 C 163.429688 10.246094 163.4375 10.230469 163.445312 10.222656 C 163.453125 10.214844 163.464844 10.210938 163.476562 10.210938 L 163.839844 10.210938 C 163.855469 10.210938 163.871094 10.214844 163.882812 10.222656 C 163.890625 10.230469 163.898438 10.242188 163.902344 10.253906 Z M 163.902344 10.253906 "/>
</g>
</svg>
